<svg width="4352" height="879" viewBox="0 0 4352 879" fill="none" xmlns="http://www.w3.org/2000/svg">
<path d="M1949.11 685C1949.11 691.771 1950.77 697.633 1954.07 702.588C1957.54 707.377 1961.91 711.588 1967.2 715.221C1972.48 718.854 1978.1 722.487 1984.04 726.12C1990.15 729.588 1996.01 733.303 2001.63 737.267C2007.41 741.23 2012.12 745.937 2015.75 751.386C2019.55 756.836 2021.45 763.524 2021.45 771.45C2021.45 779.377 2019.46 786.561 2015.5 793.001C2011.54 799.276 2005.76 804.313 1998.16 808.111C1990.73 811.909 1981.48 813.808 1970.42 813.808C1966.45 813.808 1962.49 813.478 1958.53 812.818C1954.73 812.322 1950.85 811.414 1946.89 810.093C1943.09 808.772 1939.29 807.12 1935.49 805.139C1934.67 804.643 1934.09 804.065 1933.76 803.405C1933.59 802.579 1933.43 801.588 1933.26 800.432L1930.04 766.744C1929.88 765.918 1930.21 765.505 1931.03 765.505C1932.02 765.34 1932.6 765.588 1932.77 766.249C1933.92 771.203 1935.57 776.239 1937.72 781.359C1939.87 786.478 1942.67 791.184 1946.14 795.478C1949.61 799.772 1953.82 803.24 1958.78 805.882C1963.73 808.524 1969.51 809.845 1976.11 809.845C1980.9 809.845 1985.53 808.937 1989.99 807.12C1994.61 805.304 1998.33 802.331 2001.13 798.203C2004.11 794.074 2005.59 788.46 2005.59 781.359C2005.59 773.267 2003.78 766.579 2000.14 761.294C1996.67 755.845 1992.22 751.138 1986.77 747.175C1981.32 743.212 1975.54 739.496 1969.43 736.028C1963.65 732.395 1958.03 728.68 1952.58 724.881C1947.3 721.083 1942.92 716.624 1939.45 711.505C1936.15 706.221 1934.5 699.698 1934.5 691.936C1934.5 683.184 1936.73 676 1941.19 670.386C1945.65 664.606 1951.43 660.312 1958.53 657.505C1965.63 654.697 1972.98 653.294 1980.57 653.294C1985.2 653.294 1989.99 653.789 1994.94 654.78C1999.89 655.606 2004.77 657.092 2009.56 659.239C2010.88 659.734 2011.78 660.395 2012.28 661.22C2012.94 661.881 2013.27 662.624 2013.27 663.45L2015.01 691.688C2015.01 692.349 2014.59 692.762 2013.77 692.927C2012.94 692.927 2012.36 692.597 2012.03 691.936C2011.7 688.633 2010.79 685 2009.31 681.037C2007.82 676.909 2005.67 673.028 2002.87 669.395C2000.06 665.762 1996.51 662.789 1992.22 660.477C1987.92 658.165 1982.72 657.009 1976.61 657.009C1970.17 657.009 1964.89 658.413 1960.76 661.22C1956.79 663.863 1953.82 667.331 1951.84 671.624C1950.02 675.753 1949.11 680.211 1949.11 685Z" fill="white"/>
<path d="M2092.09 814.056C2082.35 814.056 2073.85 811.662 2066.58 806.873C2059.31 802.084 2053.7 795.726 2049.74 787.799C2045.77 779.707 2043.79 771.038 2043.79 761.79C2043.79 753.203 2045.36 745.771 2048.5 739.496C2051.64 733.221 2055.85 728.102 2061.13 724.138C2066.42 720.01 2072.11 716.955 2078.22 714.973C2084.5 712.991 2090.61 712.001 2096.55 712.001C2106.63 712.001 2115.21 714.478 2122.31 719.432C2129.58 724.386 2135.11 730.744 2138.91 738.505C2142.71 746.267 2144.61 754.441 2144.61 763.028C2144.61 773.597 2142.21 782.68 2137.43 790.276C2132.64 797.873 2126.28 803.735 2118.35 807.863C2110.42 811.992 2101.67 814.056 2092.09 814.056ZM2099.28 809.35C2108.03 809.35 2114.97 806.295 2120.09 800.185C2125.2 793.909 2127.76 783.836 2127.76 769.964C2127.76 759.56 2126.03 750.395 2122.56 742.469C2119.26 734.377 2114.64 728.102 2108.69 723.643C2102.75 719.019 2095.98 716.707 2088.38 716.707C2079.63 716.707 2072.77 719.927 2067.82 726.368C2062.87 732.808 2060.39 742.056 2060.39 754.111C2060.39 764.184 2062.04 773.432 2065.34 781.854C2068.64 790.276 2073.19 796.964 2078.97 801.919C2084.91 806.873 2091.68 809.35 2099.28 809.35Z" fill="white"/>
<path d="M2161.33 810.836C2160.84 810.836 2160.59 810.341 2160.59 809.35C2160.59 808.359 2160.84 807.863 2161.33 807.863C2168.43 807.863 2173.06 806.79 2175.2 804.643C2177.35 802.496 2178.42 797.873 2178.42 790.772V735.037C2178.42 731.074 2178.01 728.184 2177.19 726.368C2176.36 724.386 2174.71 723.147 2172.23 722.652C2169.75 721.991 2165.79 721.661 2160.34 721.661C2159.85 721.661 2159.6 721.166 2159.6 720.175C2159.6 719.019 2159.85 718.441 2160.34 718.441C2167.28 718.441 2171.9 717.615 2174.21 715.964C2176.53 714.312 2177.76 711.423 2177.93 707.294C2178.75 679.881 2183.71 660.312 2192.79 648.587C2202.04 636.862 2215.25 631 2232.42 631C2241.18 631 2248.11 632.321 2253.23 634.963C2258.52 637.44 2261.16 640.495 2261.16 644.129C2261.16 646.771 2260.25 648.752 2258.43 650.074C2256.78 651.395 2254.8 652.055 2252.49 652.055C2250.51 652.055 2248.77 651.477 2247.29 650.321C2245.8 649.165 2244.23 647.431 2242.58 645.119C2240.1 641.817 2237.46 639.339 2234.65 637.688C2231.85 636.037 2228.21 635.211 2223.76 635.211C2214.67 635.211 2207.16 640.495 2201.21 651.064C2195.43 661.633 2192.54 678.642 2192.54 702.092V790.772C2192.54 795.561 2193.04 799.194 2194.03 801.671C2195.19 804.148 2197.5 805.799 2200.97 806.625C2204.43 807.451 2209.72 807.863 2216.82 807.863C2217.31 807.863 2217.56 808.359 2217.56 809.35C2217.56 810.341 2217.31 810.836 2216.82 810.836C2211.37 810.836 2206.09 810.753 2200.97 810.588C2195.85 810.423 2190.56 810.341 2185.11 810.341C2180.82 810.341 2176.53 810.423 2172.23 810.588C2168.1 810.753 2164.47 810.836 2161.33 810.836ZM2270.32 813.808C2266.36 813.808 2262.56 813.148 2258.93 811.827C2255.3 810.671 2252.32 808.607 2250.01 805.634C2247.87 802.662 2246.79 798.616 2246.79 793.496V735.037C2246.79 731.9 2246.46 729.505 2245.8 727.854C2245.14 726.202 2243.08 724.964 2239.61 724.138C2236.31 723.313 2230.69 722.9 2222.76 722.9C2214.84 722.735 2203.61 722.652 2189.08 722.652V717.945C2196.51 717.945 2203.61 717.863 2210.38 717.698C2217.31 717.533 2223.09 717.368 2227.72 717.202C2235.15 717.037 2240.85 716.459 2244.81 715.468C2248.77 714.312 2251.66 712.496 2253.48 710.019C2255.3 707.377 2256.54 703.909 2257.2 699.615C2257.2 699.12 2257.77 698.872 2258.93 698.872C2260.25 698.872 2260.91 699.12 2260.91 699.615V785.074C2260.91 791.845 2262.56 796.882 2265.87 800.185C2269.33 803.487 2274.12 805.139 2280.23 805.139C2284.69 805.139 2288.57 804.478 2291.87 803.157C2295.34 801.671 2298.15 800.102 2300.3 798.451C2300.96 797.955 2301.54 798.12 2302.03 798.946C2302.69 799.607 2302.69 800.185 2302.03 800.68C2295.92 805.304 2290.39 808.689 2285.43 810.836C2280.65 812.818 2275.61 813.808 2270.32 813.808ZM2294.6 727.358C2287.99 725.707 2281.72 724.634 2275.77 724.138C2269.83 723.643 2263.55 723.395 2256.95 723.395V717.945C2263.22 717.945 2269.42 717.698 2275.53 717.202C2281.8 716.707 2288.41 716.129 2295.34 715.468C2295.84 715.468 2296.25 716.046 2296.58 717.202C2296.91 718.358 2297.08 719.762 2297.08 721.413C2297.08 722.569 2296.75 723.89 2296.09 725.377C2295.59 726.863 2295.1 727.524 2294.6 727.358Z" fill="white"/>
<path d="M2417.47 810.588L2382.8 735.78C2379.49 728.349 2376.77 723.56 2374.62 721.413C2372.47 719.267 2369.83 718.193 2366.69 718.193C2366.36 718.193 2366.2 717.698 2366.2 716.707C2366.2 715.716 2366.36 715.221 2366.69 715.221C2369.17 715.221 2371.81 715.303 2374.62 715.468C2377.43 715.634 2380.32 715.716 2383.29 715.716C2388.91 715.716 2393.69 715.634 2397.66 715.468C2401.79 715.303 2405.5 715.221 2408.8 715.221C2409.3 715.221 2409.55 715.716 2409.55 716.707C2409.55 717.698 2409.3 718.193 2408.8 718.193C2403.85 718.193 2399.89 718.854 2396.91 720.175C2394.11 721.496 2393.61 724.056 2395.43 727.854L2427.14 795.478L2420.2 805.386L2448.93 735.037C2451.41 729.092 2451.25 724.799 2448.44 722.157C2445.63 719.514 2439.85 718.193 2431.1 718.193C2430.77 718.193 2430.6 717.698 2430.6 716.707C2430.6 715.716 2430.77 715.221 2431.1 715.221C2435.06 715.221 2438.78 715.303 2442.25 715.468C2445.88 715.634 2450.5 715.716 2456.12 715.716C2459.75 715.716 2462.64 715.634 2464.79 715.468C2466.93 715.303 2469.58 715.221 2472.71 715.221C2473.21 715.221 2473.46 715.716 2473.46 716.707C2473.46 717.698 2473.21 718.193 2472.71 718.193C2468.75 718.193 2465.36 719.514 2462.56 722.157C2459.75 724.634 2456.86 729.34 2453.89 736.276L2422.92 810.588C2422.76 811.249 2421.85 811.579 2420.2 811.579C2418.71 811.579 2417.8 811.249 2417.47 810.588ZM2359.02 810.588L2324.34 735.78C2320.87 728.349 2317.98 723.56 2315.67 721.413C2313.52 719.267 2310.88 718.193 2307.74 718.193C2307.24 718.193 2307 717.698 2307 716.707C2307 715.716 2307.24 715.221 2307.74 715.221C2310.22 715.221 2312.86 715.303 2315.67 715.468C2318.64 715.634 2321.69 715.716 2324.83 715.716C2330.12 715.716 2334.74 715.634 2338.7 715.468C2342.83 715.303 2346.71 715.221 2350.35 715.221C2350.84 715.221 2351.09 715.716 2351.09 716.707C2351.09 717.698 2350.84 718.193 2350.35 718.193C2345.06 718.193 2341.02 718.854 2338.21 720.175C2335.57 721.496 2335.15 724.056 2336.97 727.854L2368.92 795.478L2361.49 805.386L2388.49 740.239L2392.7 742.964L2364.46 810.588C2364.3 811.249 2363.39 811.579 2361.74 811.579C2360.25 811.579 2359.35 811.249 2359.02 810.588Z" fill="white"/>
<path d="M2548.8 812.322C2548.14 812.653 2547.48 812.818 2546.82 812.818C2544.68 812.818 2542.61 811.084 2540.63 807.616C2538.65 803.983 2537.66 798.781 2537.66 792.01V747.67C2537.66 739.909 2536.91 733.881 2535.43 729.588C2534.11 725.294 2532.21 722.322 2529.73 720.67C2527.42 719.019 2524.78 718.193 2521.8 718.193C2517.68 718.193 2514.29 719.267 2511.65 721.413C2509.01 723.395 2507.02 725.955 2505.7 729.092C2504.38 732.23 2503.47 735.368 2502.98 738.505C2502.81 740.817 2502.07 742.964 2500.75 744.946C2499.59 746.927 2497.28 747.918 2493.81 747.918C2491.17 747.918 2489.11 747.258 2487.62 745.937C2486.13 744.615 2485.39 742.799 2485.39 740.487C2485.39 737.514 2486.88 734.459 2489.85 731.322C2492.82 728.019 2496.54 725.046 2501 722.404C2505.62 719.597 2510.41 717.368 2515.36 715.716C2520.48 713.9 2525.27 712.991 2529.73 712.991C2536.01 712.991 2541.21 715.221 2545.34 719.679C2549.46 723.973 2551.53 730.826 2551.53 740.239V784.084C2551.53 789.863 2552.27 794.074 2553.76 796.717C2555.24 799.359 2557.64 800.68 2560.94 800.68C2563.91 800.68 2568.04 799.607 2573.33 797.46C2574.15 797.129 2574.73 797.46 2575.06 798.451C2575.39 799.276 2575.14 799.854 2574.32 800.185L2548.8 812.322ZM2500.25 812.57C2494.97 812.57 2491.01 811.166 2488.36 808.359C2485.72 805.386 2484.4 802.001 2484.4 798.203C2484.4 793.579 2486.22 789.946 2489.85 787.304C2493.48 784.496 2499.43 781.689 2507.68 778.882L2540.13 767.239L2540.88 769.964L2512.14 780.863C2508.35 782.35 2505.62 784.001 2503.97 785.817C2502.48 787.634 2501.74 789.946 2501.74 792.753C2501.74 796.221 2502.73 798.946 2504.71 800.928C2506.69 802.744 2509.25 803.652 2512.39 803.652C2514.21 803.652 2515.94 803.487 2517.59 803.157C2519.24 802.662 2520.9 802.001 2522.55 801.175L2543.6 790.524L2544.1 793.496L2522.55 805.139C2517.59 807.616 2513.46 809.515 2510.16 810.836C2506.86 811.992 2503.56 812.57 2500.25 812.57Z" fill="white"/>
<path d="M2610.22 743.707L2609.23 740.982C2615.34 733.551 2620.38 727.854 2624.34 723.89C2628.3 719.762 2631.69 716.955 2634.5 715.468C2637.47 713.817 2640.28 712.991 2642.92 712.991C2646.39 712.991 2649.77 713.982 2653.08 715.964C2656.54 717.945 2658.28 720.34 2658.28 723.147C2658.28 725.294 2657.53 727.111 2656.05 728.597C2654.73 730.083 2652.75 730.826 2650.1 730.826C2647.96 730.826 2646.14 730.166 2644.65 728.845C2643.17 727.524 2641.6 726.285 2639.95 725.129C2638.3 723.973 2636.15 723.395 2633.51 723.395C2632.02 723.395 2630.45 723.808 2628.8 724.634C2627.15 725.459 2624.92 727.358 2622.11 730.331C2619.3 733.138 2615.34 737.597 2610.22 743.707ZM2585.95 810.836C2585.45 810.836 2585.2 810.341 2585.2 809.35C2585.2 808.359 2585.45 807.863 2585.95 807.863C2592.39 807.863 2596.52 806.79 2598.33 804.643C2600.31 802.331 2601.3 797.707 2601.3 790.772V741.725C2601.3 736.276 2600.64 732.313 2599.32 729.835C2598.17 727.193 2595.94 725.872 2592.63 725.872C2590.98 725.872 2589 726.202 2586.69 726.863C2584.54 727.524 2582.07 728.432 2579.26 729.588C2578.6 729.753 2578.02 729.423 2577.52 728.597C2577.19 727.771 2577.36 727.193 2578.02 726.863L2606.75 713.239C2607.25 713.074 2607.75 712.991 2608.24 712.991C2609.4 712.991 2610.88 714.725 2612.7 718.193C2614.52 721.661 2615.42 726.698 2615.42 733.303V790.772C2615.42 795.396 2616 799.029 2617.16 801.671C2618.31 804.148 2620.63 805.799 2624.09 806.625C2627.56 807.451 2632.68 807.863 2639.45 807.863C2640.11 807.863 2640.44 808.359 2640.44 809.35C2640.44 810.341 2640.11 810.836 2639.45 810.836C2635.49 810.836 2630.78 810.753 2625.33 810.588C2620.05 810.423 2614.43 810.341 2608.49 810.341C2604.19 810.341 2600.07 810.423 2596.1 810.588C2592.14 810.753 2588.75 810.836 2585.95 810.836Z" fill="white"/>
<path d="M2717.61 813.808C2707.37 813.808 2698.79 811.579 2691.85 807.12C2684.92 802.496 2679.71 796.551 2676.25 789.285C2672.78 782.019 2671.04 774.34 2671.04 766.249C2671.04 756.175 2673.36 747.175 2677.98 739.248C2682.77 731.157 2689.13 724.799 2697.05 720.175C2705.15 715.386 2714.23 712.991 2724.3 712.991C2733.38 712.991 2740.32 715.221 2745.11 719.679C2750.06 723.973 2752.54 729.918 2752.54 737.514C2752.54 739.331 2752.38 740.735 2752.04 741.725C2751.71 742.716 2750.89 743.212 2749.57 743.212H2735.2C2735.86 735.12 2734.37 728.927 2730.74 724.634C2727.27 720.175 2722.32 717.945 2715.88 717.945C2706.63 717.945 2699.53 721.413 2694.58 728.349C2689.79 735.285 2687.39 744.698 2687.39 756.588C2687.39 766.001 2688.88 774.34 2691.85 781.606C2694.99 788.873 2699.45 794.652 2705.23 798.946C2711.17 803.074 2718.19 805.139 2726.28 805.139C2730.58 805.139 2734.95 804.478 2739.41 803.157C2743.87 801.836 2748.08 799.772 2752.04 796.964C2752.38 796.634 2752.79 796.882 2753.28 797.707C2753.94 798.368 2754.11 798.946 2753.78 799.441C2747.83 804.561 2741.89 808.276 2735.94 810.588C2730 812.735 2723.89 813.808 2717.61 813.808ZM2682.93 743.707L2682.69 740.487L2739.16 739.248V743.212L2682.93 743.707Z" fill="white"/>
<path d="M2812.63 878.956C2805.2 878.956 2799.5 877.552 2795.54 874.745C2791.57 871.937 2789.92 868.635 2790.58 864.836C2791.08 861.534 2792.48 859.056 2794.79 857.405C2796.94 855.754 2799.34 854.928 2801.98 854.928C2805.94 854.928 2808.67 855.836 2810.15 857.653C2811.47 859.634 2812.3 861.864 2812.63 864.341C2812.96 866.983 2813.45 869.213 2814.11 871.029C2814.61 873.011 2815.93 874.002 2818.08 874.002C2819.73 874.002 2821.13 872.68 2822.29 870.038C2823.45 867.561 2824.6 862.607 2825.76 855.176C2827.08 847.744 2828.81 836.845 2830.96 822.478L2843.59 735.037C2844.25 730.909 2844.34 727.936 2843.84 726.12C2843.51 724.303 2842.35 723.147 2840.37 722.652C2838.56 722.157 2835.58 721.909 2831.45 721.909C2830.79 721.909 2830.46 721.248 2830.46 719.927C2830.63 718.606 2830.96 717.945 2831.45 717.945C2836.74 717.945 2840.54 717.202 2842.85 715.716C2845.33 714.23 2846.89 711.423 2847.56 707.294C2850.03 692.266 2852.76 679.798 2855.73 669.89C2858.7 659.982 2862.25 652.22 2866.38 646.606C2870.51 640.826 2875.46 636.78 2881.24 634.468C2887.02 632.156 2893.79 631 2901.56 631C2908.99 631 2914.68 632.404 2918.65 635.211C2922.61 637.853 2924.26 641.156 2923.6 645.119C2923.11 648.422 2921.7 650.982 2919.39 652.798C2917.08 654.615 2914.44 655.523 2911.46 655.523C2907.01 655.523 2903.95 654.532 2902.3 652.551C2900.65 650.569 2899.66 648.34 2899.33 645.862C2899 643.385 2898.58 641.156 2898.09 639.174C2897.59 637.193 2896.11 636.202 2893.63 636.202C2888.18 636.202 2883.64 641.817 2880.01 653.046C2876.37 664.11 2872.9 680.459 2869.6 702.092L2852.76 816.038C2850.45 831.891 2847.56 844.359 2844.09 853.442C2840.78 862.69 2836.57 869.213 2831.45 873.011C2826.5 876.974 2820.23 878.956 2812.63 878.956ZM2884.71 726.863C2884.55 726.863 2882.81 726.615 2879.51 726.12C2876.21 725.624 2872.24 725.129 2867.62 724.634C2863.16 724.138 2858.95 723.89 2854.99 723.89L2855.48 717.202C2859.28 717.202 2863.66 717.037 2868.61 716.707C2873.56 716.377 2878.11 716.046 2882.23 715.716C2886.53 715.386 2889.42 715.221 2890.9 715.221C2891.73 715.221 2892.23 715.551 2892.39 716.212C2892.72 716.872 2892.8 717.533 2892.64 718.193C2892.31 719.514 2891.32 721.331 2889.67 723.643C2888.01 725.79 2886.36 726.863 2884.71 726.863Z" fill="#EB0032"/>
<path d="M2923.81 814.304C2914.73 814.304 2907.47 811.909 2902.02 807.12C2896.73 802.331 2893.26 796.056 2891.61 788.295C2889.96 780.533 2889.96 772.111 2891.61 763.028C2893.59 752.955 2897.23 744.12 2902.51 736.524C2907.8 728.762 2914.24 722.735 2921.83 718.441C2929.43 714.147 2937.6 712.001 2946.36 712.001C2955.6 712.001 2962.95 714.312 2968.4 718.936C2973.85 723.395 2977.48 729.505 2979.3 737.267C2981.12 744.863 2981.04 753.45 2979.05 763.028C2976.91 774.258 2972.86 783.753 2966.92 791.515C2961.14 799.111 2954.45 804.808 2946.85 808.607C2939.26 812.405 2931.58 814.304 2923.81 814.304ZM2932.24 808.111C2937.52 808.111 2942.06 805.056 2945.86 798.946C2949.82 792.671 2952.71 784.331 2954.53 773.928C2955.85 766.496 2956.43 759.478 2956.26 752.872C2956.26 746.102 2955.52 740.074 2954.04 734.79C2952.55 729.505 2950.48 725.377 2947.84 722.404C2945.2 719.432 2941.98 717.945 2938.18 717.945C2933.56 717.945 2929.26 720.753 2925.3 726.368C2921.34 731.982 2918.28 740.652 2916.14 752.377C2914.81 759.808 2914.24 766.909 2914.4 773.68C2914.57 780.45 2915.31 786.395 2916.63 791.515C2918.12 796.634 2920.18 800.68 2922.82 803.652C2925.47 806.625 2928.6 808.111 2932.24 808.111Z" fill="#EB0032"/>
<path d="M3018.74 807.863L3016.26 807.616C3017.91 798.863 3019.81 790.029 3021.96 781.111C3024.1 772.028 3026.42 763.441 3028.89 755.349C3031.54 747.258 3034.43 740.074 3037.56 733.799C3040.7 727.358 3044.09 722.322 3047.72 718.689C3051.35 714.89 3055.23 712.991 3059.36 712.991C3062 712.991 3064.73 713.734 3067.54 715.221C3070.34 716.542 3072.65 718.358 3074.47 720.67C3076.29 722.982 3076.95 725.542 3076.45 728.349C3076.29 730.496 3075.21 732.725 3073.23 735.037C3071.25 737.349 3068.69 738.505 3065.55 738.505C3063.08 738.505 3060.93 737.927 3059.11 736.771C3057.3 735.45 3055.56 734.212 3053.91 733.056C3052.43 731.735 3050.77 731.074 3048.96 731.074C3047.14 731.074 3045.08 732.891 3042.76 736.524C3040.45 739.992 3038.06 744.615 3035.58 750.395C3033.27 756.175 3030.96 762.533 3028.65 769.469C3026.5 776.239 3024.52 783.01 3022.7 789.781C3021.05 796.551 3019.73 802.579 3018.74 807.863ZM3004.87 812.818C3001.73 812.818 2999.58 812.57 2998.43 812.075C2997.27 811.744 2996.69 811.331 2996.69 810.836C2996.69 810.175 2997.19 808.029 2998.18 804.396C2999.17 800.763 2999.99 796.799 3000.65 792.506L3010.81 737.267C3011.31 734.459 3011.47 732.23 3011.31 730.579C3011.14 728.762 3010.65 727.441 3009.82 726.615C3009.16 725.624 3008.17 725.129 3006.85 725.129C3005.36 725.129 3003.38 725.955 3000.9 727.606C2998.59 729.258 2995.87 731.735 2992.73 735.037C2992.07 735.698 2991.41 735.698 2990.75 735.037C2990.09 734.212 2990.09 733.469 2990.75 732.808C2996.69 725.707 3002.06 720.67 3006.85 717.698C3011.64 714.56 3016.34 712.991 3020.97 712.991C3024.6 712.991 3027.32 713.817 3029.14 715.468C3030.96 717.12 3032.03 719.514 3032.36 722.652C3032.86 725.79 3032.69 729.67 3031.87 734.294L3018.74 807.863C3018.24 811.166 3013.62 812.818 3004.87 812.818Z" fill="#EB0032"/>
<path d="M3232.46 813.808C3213.97 813.808 3198.12 810.341 3184.9 803.405C3171.69 796.304 3161.62 786.808 3154.68 774.918C3147.75 763.028 3144.28 749.817 3144.28 735.285C3144.28 723.065 3146.59 712.001 3151.22 702.092C3156.01 692.019 3162.61 683.349 3171.03 676.083C3179.62 668.817 3189.61 663.202 3201.01 659.239C3212.57 655.275 3225.12 653.294 3238.66 653.294C3246.42 653.294 3254.02 654.037 3261.45 655.523C3268.88 657.009 3274.99 659.239 3279.78 662.211C3281.26 663.202 3282.09 664.028 3282.25 664.688C3282.42 665.349 3282.58 666.422 3282.75 667.908L3285.72 695.652C3285.72 695.982 3285.23 696.312 3284.24 696.643C3283.41 696.808 3282.91 696.56 3282.75 695.899C3279.12 683.844 3272.59 674.679 3263.18 668.404C3253.77 661.963 3242.04 658.743 3228.01 658.743C3207.03 658.743 3190.85 664.853 3179.46 677.074C3168.23 689.129 3162.61 705.56 3162.61 726.368C3162.61 742.716 3165.91 757.166 3172.52 769.716C3179.12 782.102 3188.12 791.845 3199.52 798.946C3210.91 806.047 3223.88 809.597 3238.41 809.597C3246.5 809.597 3252.94 808.854 3257.73 807.368C3262.52 805.882 3265.99 802.992 3268.13 798.698C3270.28 794.405 3271.35 788.047 3271.35 779.625C3271.35 771.698 3270.86 765.918 3269.87 762.285C3268.88 758.487 3266.4 756.01 3262.44 754.854C3258.47 753.698 3252.12 753.12 3243.36 753.12C3242.37 753.12 3241.88 752.459 3241.88 751.138C3241.88 749.817 3242.29 749.157 3243.12 749.157C3253.52 749.817 3263.02 750.23 3271.6 750.395C3280.19 750.395 3289.19 750.148 3298.6 749.652C3299.43 749.652 3299.84 750.23 3299.84 751.386C3299.84 752.542 3299.43 753.12 3298.6 753.12C3294.8 752.955 3292 753.533 3290.18 754.854C3288.53 756.01 3287.46 758.652 3286.96 762.781C3286.46 766.909 3286.22 773.35 3286.22 782.102C3286.22 787.551 3286.38 791.597 3286.71 794.24C3287.04 796.882 3287.29 798.863 3287.46 800.185C3287.79 801.341 3287.95 802.579 3287.95 803.9C3287.95 804.891 3287.79 805.552 3287.46 805.882C3287.13 806.212 3286.38 806.542 3285.23 806.873C3276.8 808.854 3267.97 810.506 3258.72 811.827C3249.64 813.148 3240.89 813.808 3232.46 813.808Z" fill="white"/>
<path d="M3366.19 814.056C3356.45 814.056 3347.95 811.662 3340.68 806.873C3333.41 802.084 3327.8 795.726 3323.84 787.799C3319.87 779.707 3317.89 771.038 3317.89 761.79C3317.89 753.203 3319.46 745.771 3322.6 739.496C3325.74 733.221 3329.95 728.102 3335.23 724.138C3340.51 720.01 3346.21 716.955 3352.32 714.973C3358.6 712.991 3364.71 712.001 3370.65 712.001C3380.73 712.001 3389.31 714.478 3396.41 719.432C3403.68 724.386 3409.21 730.744 3413.01 738.505C3416.81 746.267 3418.71 754.441 3418.71 763.028C3418.71 773.597 3416.31 782.68 3411.52 790.276C3406.74 797.873 3400.38 803.735 3392.45 807.863C3384.52 811.992 3375.77 814.056 3366.19 814.056ZM3373.38 809.35C3382.13 809.35 3389.07 806.295 3394.19 800.185C3399.3 793.909 3401.86 783.836 3401.86 769.964C3401.86 759.56 3400.13 750.395 3396.66 742.469C3393.36 734.377 3388.74 728.102 3382.79 723.643C3376.85 719.019 3370.07 716.707 3362.48 716.707C3353.73 716.707 3346.87 719.927 3341.92 726.368C3336.96 732.808 3334.49 742.056 3334.49 754.111C3334.49 764.184 3336.14 773.432 3339.44 781.854C3342.74 790.276 3347.29 796.964 3353.07 801.919C3359.01 806.873 3365.78 809.35 3373.38 809.35Z" fill="white"/>
<path d="M3534.27 715.221C3534.6 715.221 3534.76 715.716 3534.76 716.707C3534.76 717.698 3534.6 718.193 3534.27 718.193C3530.14 718.193 3526.59 719.514 3523.62 722.157C3520.81 724.634 3518 729.34 3515.19 736.276L3484.23 810.588C3484.07 811.249 3483.16 811.579 3481.51 811.579C3480.02 811.579 3479.11 811.249 3478.78 810.588L3444.1 735.78C3440.63 728.349 3437.74 723.56 3435.43 721.413C3433.29 719.267 3430.64 718.193 3427.51 718.193C3427.01 718.193 3426.76 717.698 3426.76 716.707C3426.76 715.716 3427.01 715.221 3427.51 715.221C3429.98 715.221 3432.62 715.303 3435.43 715.468C3438.4 715.634 3441.46 715.716 3444.6 715.716C3450.21 715.716 3455.08 715.634 3459.21 715.468C3463.34 715.303 3467.14 715.221 3470.61 715.221C3471.1 715.221 3471.35 715.716 3471.35 716.707C3471.35 717.698 3471.1 718.193 3470.61 718.193C3465.49 718.193 3461.44 718.854 3458.47 720.175C3455.5 721.331 3454.92 723.89 3456.74 727.854L3488.44 795.23L3481.26 805.386L3510.24 735.037C3512.72 729.092 3512.47 724.799 3509.5 722.157C3506.69 719.514 3500.99 718.193 3492.41 718.193C3492.07 718.193 3491.91 717.698 3491.91 716.707C3491.91 715.716 3492.07 715.221 3492.41 715.221C3496.37 715.221 3500.08 715.303 3503.55 715.468C3507.19 715.634 3511.81 715.716 3517.42 715.716C3520.89 715.716 3523.7 715.634 3525.85 715.468C3528.16 715.303 3530.97 715.221 3534.27 715.221Z" fill="white"/>
<path d="M3590.4 813.808C3580.16 813.808 3571.57 811.579 3564.64 807.12C3557.7 802.496 3552.5 796.551 3549.03 789.285C3545.56 782.019 3543.83 774.34 3543.83 766.249C3543.83 756.175 3546.14 747.175 3550.76 739.248C3555.55 731.157 3561.91 724.799 3569.84 720.175C3577.93 715.386 3587.01 712.991 3597.08 712.991C3606.17 712.991 3613.1 715.221 3617.89 719.679C3622.85 723.973 3625.32 729.918 3625.32 737.514C3625.32 739.331 3625.16 740.735 3624.83 741.725C3624.5 742.716 3623.67 743.212 3622.35 743.212H3607.98C3608.64 735.12 3607.16 728.927 3603.53 724.634C3600.06 720.175 3595.1 717.945 3588.66 717.945C3579.42 717.945 3572.31 721.413 3567.36 728.349C3562.57 735.285 3560.18 744.698 3560.18 756.588C3560.18 766.001 3561.66 774.34 3564.64 781.606C3567.77 788.873 3572.23 794.652 3578.01 798.946C3583.96 803.074 3590.97 805.139 3599.07 805.139C3603.36 805.139 3607.74 804.478 3612.2 803.157C3616.65 801.836 3620.86 799.772 3624.83 796.964C3625.16 796.634 3625.57 796.882 3626.07 797.707C3626.73 798.368 3626.89 798.946 3626.56 799.441C3620.62 804.561 3614.67 808.276 3608.73 810.588C3602.78 812.735 3596.67 813.808 3590.4 813.808ZM3555.72 743.707L3555.47 740.487L3611.95 739.248V743.212L3555.72 743.707Z" fill="white"/>
<path d="M3671.45 743.707L3670.46 740.982C3676.57 733.551 3681.6 727.854 3685.57 723.89C3689.53 719.762 3692.92 716.955 3695.72 715.468C3698.7 713.817 3701.5 712.991 3704.15 712.991C3707.61 712.991 3711 713.982 3714.3 715.964C3717.77 717.945 3719.5 720.34 3719.5 723.147C3719.5 725.294 3718.76 727.111 3717.27 728.597C3715.95 730.083 3713.97 730.826 3711.33 730.826C3709.18 730.826 3707.37 730.166 3705.88 728.845C3704.39 727.524 3702.82 726.285 3701.17 725.129C3699.52 723.973 3697.37 723.395 3694.73 723.395C3693.25 723.395 3691.68 723.808 3690.03 724.634C3688.37 725.459 3686.15 727.358 3683.34 730.331C3680.53 733.138 3676.57 737.597 3671.45 743.707ZM3647.17 810.836C3646.68 810.836 3646.43 810.341 3646.43 809.35C3646.43 808.359 3646.68 807.863 3647.17 807.863C3653.61 807.863 3657.74 806.79 3659.56 804.643C3661.54 802.331 3662.53 797.707 3662.53 790.772V741.725C3662.53 736.276 3661.87 732.313 3660.55 729.835C3659.39 727.193 3657.16 725.872 3653.86 725.872C3652.21 725.872 3650.23 726.202 3647.92 726.863C3645.77 727.524 3643.29 728.432 3640.48 729.588C3639.82 729.753 3639.25 729.423 3638.75 728.597C3638.42 727.771 3638.59 727.193 3639.25 726.863L3667.98 713.239C3668.48 713.074 3668.97 712.991 3669.47 712.991C3670.62 712.991 3672.11 714.725 3673.92 718.193C3675.74 721.661 3676.65 726.698 3676.65 733.303V790.772C3676.65 795.396 3677.23 799.029 3678.38 801.671C3679.54 804.148 3681.85 805.799 3685.32 806.625C3688.79 807.451 3693.91 807.863 3700.68 807.863C3701.34 807.863 3701.67 808.359 3701.67 809.35C3701.67 810.341 3701.34 810.836 3700.68 810.836C3696.71 810.836 3692.01 810.753 3686.56 810.588C3681.27 810.423 3675.66 810.341 3669.71 810.341C3665.42 810.341 3661.29 810.423 3657.33 810.588C3653.36 810.753 3649.98 810.836 3647.17 810.836Z" fill="white"/>
<path d="M3804.04 810.836C3803.54 810.836 3803.29 810.341 3803.29 809.35C3803.29 808.359 3803.54 807.863 3804.04 807.863C3810.48 807.863 3814.6 806.79 3816.42 804.643C3818.4 802.331 3819.39 797.707 3819.39 790.772V750.643C3819.39 740.735 3817.58 733.551 3813.94 729.092C3810.31 724.468 3804.53 722.157 3796.6 722.157C3790.66 722.157 3784.55 724.056 3778.27 727.854C3772 731.652 3766.63 736.854 3762.17 743.459L3761.18 740.487C3768.45 730.744 3775.63 723.56 3782.73 718.936C3790 714.312 3797.35 712.001 3804.78 712.001C3813.86 712.001 3820.88 714.56 3825.83 719.679C3830.95 724.634 3833.51 732.147 3833.51 742.221V790.772C3833.51 797.707 3834.42 802.331 3836.24 804.643C3838.22 806.79 3842.43 807.863 3848.87 807.863C3849.37 807.863 3849.61 808.359 3849.61 809.35C3849.61 810.341 3849.37 810.836 3848.87 810.836C3846.06 810.836 3842.68 810.753 3838.71 810.588C3834.92 810.423 3830.87 810.341 3826.58 810.341C3822.28 810.341 3818.15 810.423 3814.19 810.588C3810.23 810.753 3806.84 810.836 3804.04 810.836ZM3737.4 810.836C3736.91 810.836 3736.66 810.341 3736.66 809.35C3736.66 808.359 3736.91 807.863 3737.4 807.863C3743.84 807.863 3747.97 806.79 3749.79 804.643C3751.77 802.331 3752.76 797.707 3752.76 790.772V741.725C3752.76 736.276 3752.1 732.313 3750.78 729.835C3749.62 727.193 3747.39 725.872 3744.09 725.872C3742.44 725.872 3740.46 726.202 3738.14 726.863C3736 727.524 3733.52 728.432 3730.71 729.588C3730.05 729.753 3729.48 729.423 3728.98 728.597C3728.65 727.771 3728.81 727.193 3729.48 726.863L3758.21 713.239C3758.7 713.074 3759.2 712.991 3759.7 712.991C3760.85 712.991 3762.34 714.725 3764.15 718.193C3765.97 721.661 3766.88 726.698 3766.88 733.303V790.772C3766.88 797.707 3767.79 802.331 3769.6 804.643C3771.59 806.79 3775.8 807.863 3782.24 807.863C3782.73 807.863 3782.98 808.359 3782.98 809.35C3782.98 810.341 3782.73 810.836 3782.24 810.836C3779.43 810.836 3776.04 810.753 3772.08 810.588C3768.28 810.423 3764.24 810.341 3759.94 810.341C3755.65 810.341 3751.52 810.423 3747.56 810.588C3743.59 810.753 3740.21 810.836 3737.4 810.836Z" fill="white"/>
<path d="M3992.94 810.836C3992.44 810.836 3992.19 810.341 3992.19 809.35C3992.19 808.359 3992.44 807.863 3992.94 807.863C3999.38 807.863 4003.59 806.79 4005.57 804.643C4007.55 802.331 4008.54 797.707 4008.54 790.772V751.386C4008.54 732.065 4001.44 722.404 3987.24 722.404C3981.3 722.404 3975.35 724.386 3969.41 728.349C3963.63 732.147 3958.51 737.349 3954.05 743.955L3953.06 740.982C3960.16 731.074 3967.18 723.89 3974.11 719.432C3981.05 714.973 3988.15 712.744 3995.42 712.744C4004 712.744 4010.61 715.221 4015.23 720.175C4020.02 724.964 4022.42 732.478 4022.42 742.716V790.772C4022.42 797.707 4023.32 802.331 4025.14 804.643C4027.12 806.79 4031.42 807.863 4038.02 807.863C4038.52 807.863 4038.76 808.359 4038.76 809.35C4038.76 810.341 4038.52 810.836 4038.02 810.836C4035.21 810.836 4031.83 810.753 4027.86 810.588C4023.9 810.423 4019.77 810.341 4015.48 810.341C4011.19 810.341 4007.06 810.423 4003.09 810.588C3999.3 810.753 3995.91 810.836 3992.94 810.836ZM3929.03 810.836C3928.53 810.836 3928.29 810.341 3928.29 809.35C3928.29 808.359 3928.53 807.863 3929.03 807.863C3935.47 807.863 3939.6 806.79 3941.41 804.643C3943.4 802.331 3944.39 797.707 3944.39 790.772V751.386C3944.39 732.065 3937.37 722.404 3923.33 722.404C3917.39 722.404 3911.44 724.386 3905.5 728.349C3899.72 732.147 3894.6 737.349 3890.14 743.955L3889.15 740.982C3896.08 731.074 3903.02 723.89 3909.96 719.432C3916.89 714.973 3923.99 712.744 3931.26 712.744C3939.85 712.744 3946.53 715.138 3951.32 719.927C3956.11 724.716 3958.51 732.147 3958.51 742.221V790.772C3958.51 797.707 3959.41 802.331 3961.23 804.643C3963.21 806.79 3967.51 807.863 3974.11 807.863C3974.61 807.863 3974.86 808.359 3974.86 809.35C3974.86 810.341 3974.61 810.836 3974.11 810.836C3971.14 810.836 3967.67 810.753 3963.71 810.588C3959.91 810.423 3955.86 810.341 3951.57 810.341C3947.28 810.341 3943.15 810.423 3939.19 810.588C3935.22 810.753 3931.84 810.836 3929.03 810.836ZM3865.37 810.836C3864.87 810.836 3864.63 810.341 3864.63 809.35C3864.63 808.359 3864.87 807.863 3865.37 807.863C3871.81 807.863 3875.94 806.79 3877.75 804.643C3879.74 802.331 3880.73 797.707 3880.73 790.772V741.725C3880.73 736.276 3880.07 732.313 3878.74 729.835C3877.59 727.193 3875.36 725.872 3872.06 725.872C3870.4 725.872 3868.42 726.202 3866.11 726.863C3863.96 727.524 3861.49 728.432 3858.68 729.588C3858.02 729.753 3857.44 729.423 3856.95 728.597C3856.62 727.771 3856.78 727.193 3857.44 726.863L3886.18 713.239C3886.67 713.074 3887.17 712.991 3887.66 712.991C3888.82 712.991 3890.3 714.725 3892.12 718.193C3893.94 721.661 3894.85 726.698 3894.85 733.303V790.772C3894.85 797.707 3895.75 802.331 3897.57 804.643C3899.55 806.79 3903.76 807.863 3910.2 807.863C3910.7 807.863 3910.95 808.359 3910.95 809.35C3910.95 810.341 3910.7 810.836 3910.2 810.836C3907.4 810.836 3904.01 810.753 3900.05 810.588C3896.25 810.423 3892.2 810.341 3887.91 810.341C3883.62 810.341 3879.49 810.423 3875.52 810.588C3871.56 810.753 3868.18 810.836 3865.37 810.836Z" fill="white"/>
<path d="M4098.63 813.808C4088.4 813.808 4079.81 811.579 4072.87 807.12C4065.94 802.496 4060.73 796.551 4057.27 789.285C4053.8 782.019 4052.06 774.34 4052.06 766.249C4052.06 756.175 4054.38 747.175 4059 739.248C4063.79 731.157 4070.15 724.799 4078.07 720.175C4086.17 715.386 4095.25 712.991 4105.32 712.991C4114.4 712.991 4121.34 715.221 4126.13 719.679C4131.08 723.973 4133.56 729.918 4133.56 737.514C4133.56 739.331 4133.4 740.735 4133.07 741.725C4132.73 742.716 4131.91 743.212 4130.59 743.212H4116.22C4116.88 735.12 4115.4 728.927 4111.76 724.634C4108.29 720.175 4103.34 717.945 4096.9 717.945C4087.65 717.945 4080.55 721.413 4075.6 728.349C4070.81 735.285 4068.41 744.698 4068.41 756.588C4068.41 766.001 4069.9 774.34 4072.87 781.606C4076.01 788.873 4080.47 794.652 4086.25 798.946C4092.19 803.074 4099.21 805.139 4107.3 805.139C4111.6 805.139 4115.97 804.478 4120.43 803.157C4124.89 801.836 4129.1 799.772 4133.07 796.964C4133.4 796.634 4133.81 796.882 4134.3 797.707C4134.96 798.368 4135.13 798.946 4134.8 799.441C4128.85 804.561 4122.91 808.276 4116.96 810.588C4111.02 812.735 4104.91 813.808 4098.63 813.808ZM4063.95 743.707L4063.71 740.487L4120.18 739.248V743.212L4063.95 743.707Z" fill="white"/>
<path d="M4222.04 810.836C4221.55 810.836 4221.3 810.341 4221.3 809.35C4221.3 808.359 4221.55 807.863 4222.04 807.863C4228.48 807.863 4232.61 806.79 4234.43 804.643C4236.41 802.331 4237.4 797.707 4237.4 790.772V750.643C4237.4 740.735 4235.58 733.551 4231.95 729.092C4228.32 724.468 4222.54 722.157 4214.61 722.157C4208.67 722.157 4202.56 724.056 4196.28 727.854C4190.01 731.652 4184.64 736.854 4180.18 743.459L4179.19 740.487C4186.46 730.744 4193.64 723.56 4200.74 718.936C4208.01 714.312 4215.35 712.001 4222.79 712.001C4231.87 712.001 4238.89 714.56 4243.84 719.679C4248.96 724.634 4251.52 732.147 4251.52 742.221V790.772C4251.52 797.707 4252.43 802.331 4254.24 804.643C4256.23 806.79 4260.44 807.863 4266.88 807.863C4267.37 807.863 4267.62 808.359 4267.62 809.35C4267.62 810.341 4267.37 810.836 4266.88 810.836C4264.07 810.836 4260.69 810.753 4256.72 810.588C4252.92 810.423 4248.88 810.341 4244.58 810.341C4240.29 810.341 4236.16 810.423 4232.2 810.588C4228.24 810.753 4224.85 810.836 4222.04 810.836ZM4155.41 810.836C4154.91 810.836 4154.67 810.341 4154.67 809.35C4154.67 808.359 4154.91 807.863 4155.41 807.863C4161.85 807.863 4165.98 806.79 4167.79 804.643C4169.78 802.331 4170.77 797.707 4170.77 790.772V741.725C4170.77 736.276 4170.11 732.313 4168.79 729.835C4167.63 727.193 4165.4 725.872 4162.1 725.872C4160.45 725.872 4158.46 726.202 4156.15 726.863C4154.01 727.524 4151.53 728.432 4148.72 729.588C4148.06 729.753 4147.48 729.423 4146.99 728.597C4146.66 727.771 4146.82 727.193 4147.48 726.863L4176.22 713.239C4176.71 713.074 4177.21 712.991 4177.7 712.991C4178.86 712.991 4180.35 714.725 4182.16 718.193C4183.98 721.661 4184.89 726.698 4184.89 733.303V790.772C4184.89 797.707 4185.79 802.331 4187.61 804.643C4189.59 806.79 4193.8 807.863 4200.24 807.863C4200.74 807.863 4200.99 808.359 4200.99 809.35C4200.99 810.341 4200.74 810.836 4200.24 810.836C4197.44 810.836 4194.05 810.753 4190.09 810.588C4186.29 810.423 4182.24 810.341 4177.95 810.341C4173.66 810.341 4169.53 810.423 4165.57 810.588C4161.6 810.753 4158.22 810.836 4155.41 810.836Z" fill="white"/>
<path d="M4318.8 813.808C4314.83 813.808 4311.04 813.148 4307.4 811.827C4303.77 810.671 4300.8 808.607 4298.49 805.634C4296.17 802.662 4295.02 798.616 4295.02 793.496V735.285C4295.02 731.322 4294.77 728.349 4294.27 726.368C4293.78 724.386 4292.62 723.147 4290.81 722.652C4288.99 721.991 4286.18 721.661 4282.38 721.661C4281.72 721.661 4281.39 721.166 4281.39 720.175C4281.39 719.019 4281.72 718.441 4282.38 718.441C4288.99 718.276 4294.36 716.459 4298.49 712.991C4302.78 709.523 4305.17 705.065 4305.67 699.615C4305.67 699.12 4306.25 698.872 4307.4 698.872C4308.72 698.872 4309.38 699.12 4309.38 699.615V785.074C4309.38 791.845 4311.04 796.882 4314.34 800.185C4317.81 803.487 4322.68 805.139 4328.95 805.139C4333.25 805.139 4337.05 804.478 4340.35 803.157C4343.82 801.671 4346.62 800.019 4348.77 798.203C4349.43 797.873 4350.01 798.12 4350.5 798.946C4351.16 799.607 4351.16 800.185 4350.5 800.68C4344.39 805.304 4338.86 808.689 4333.91 810.836C4329.12 812.818 4324.08 813.808 4318.8 813.808ZM4342.83 727.358C4336.39 725.707 4330.19 724.634 4324.25 724.138C4318.3 723.643 4311.94 723.395 4305.17 723.395V717.945C4311.78 717.945 4318.14 717.698 4324.25 717.202C4330.36 716.707 4336.88 716.129 4343.82 715.468C4344.15 715.468 4344.48 716.046 4344.81 717.202C4345.3 718.358 4345.55 719.762 4345.55 721.413C4345.55 722.569 4345.22 723.89 4344.56 725.377C4344.06 726.863 4343.49 727.524 4342.83 727.358Z" fill="white"/>
<path d="M54.0571 590.4C43.9238 590.4 34.0571 588.267 24.4571 584C15.3905 580.267 8.45714 573.6 3.65714 564C-0.609524 553.867 -1.14286 540 2.05714 522.4L36.4571 336C40.1905 316.267 40.4571 304 37.2571 299.2C34.5905 294.4 25.2571 292 9.25715 292C7.12381 292 6.32381 290.4 6.85714 287.2C7.39048 284 8.45714 282.4 10.0571 282.4C28.7238 282.4 44.7238 276.533 58.0571 264.8C71.3905 252.533 80.1905 237.867 84.4571 220.8C84.9905 219.2 87.3905 218.4 91.6572 218.4C96.4571 218.4 98.5905 219.2 98.0572 220.8L48.4571 497.6C44.1905 519.467 44.9905 535.467 50.8571 545.6C57.2571 555.733 68.7238 560.8 85.2571 560.8C100.724 560.8 114.59 557.333 126.857 550.4C139.124 542.933 150.857 534.4 162.057 524.8C163.124 523.733 164.724 524.267 166.857 526.4C169.524 528.533 170.057 530.133 168.457 531.2C144.457 552.533 123.39 567.733 105.257 576.8C87.1238 585.867 70.0571 590.4 54.0571 590.4ZM169.257 307.2C168.19 307.2 162.324 306.667 151.657 305.6C140.99 304 128.457 302.667 114.057 301.6C100.19 300 86.5905 299.2 73.2571 299.2L74.8571 280C88.7238 280 103.657 279.467 119.657 278.4C135.657 277.333 150.324 276.533 163.657 276C176.99 274.933 185.524 274.4 189.257 274.4C191.924 274.4 193.524 275.2 194.057 276.8C195.124 277.867 195.39 279.467 194.857 281.6C194.324 285.867 191.124 291.2 185.257 297.6C179.924 304 174.59 307.2 169.257 307.2Z" fill="white"/>
<path d="M242.795 587.2C235.328 587.2 230.261 586.667 227.595 585.6C225.461 585.067 224.395 584 224.395 582.4C224.395 580.267 225.728 573.067 228.395 560.8C231.595 548.533 234.261 535.467 236.395 521.6L317.995 85.6C321.728 66.4 319.595 54.4 311.595 49.6C303.595 44.8 287.595 48.2667 263.595 60C261.461 61.0666 259.595 60 257.995 56.8C256.928 53.6 257.461 51.7333 259.595 51.2L362.795 0.79999C364.928 -0.266695 367.061 0.266631 369.195 2.39997C371.328 4.53331 372.128 6.13332 371.595 7.2L268.395 575.2C267.328 583.2 258.795 587.2 242.795 587.2ZM446.795 588C432.928 588 424.128 582.133 420.395 570.4C417.195 558.667 418.261 538.4 423.595 509.6L446.795 382.4C452.661 352 453.195 329.6 448.395 315.2C443.595 300.267 433.195 292.8 417.195 292.8C400.128 292.8 382.261 303.733 363.595 325.6C344.928 347.467 327.061 379.467 309.995 421.6C293.461 463.733 279.595 514.933 268.395 575.2L258.795 574.4C269.995 512 284.928 457.333 303.595 410.4C322.261 363.467 343.595 326.933 367.595 300.8C392.128 274.667 417.461 261.6 443.595 261.6C466.528 261.6 481.461 269.867 488.395 286.4C495.861 302.933 496.395 329.867 489.995 367.2L463.595 509.6C460.928 525.6 460.661 537.333 462.795 544.8C465.461 552.267 470.261 556 477.195 556C483.061 556 490.528 552.8 499.595 546.4C508.661 539.467 518.795 530.4 529.995 519.2C532.128 517.067 534.261 517.067 536.395 519.2C538.528 521.333 538.528 523.467 536.395 525.6C519.328 545.333 503.595 560.8 489.195 572C474.795 582.667 460.661 588 446.795 588Z" fill="white"/>
<path d="M678.132 590.4C649.865 590.4 627.465 582.933 610.932 568C594.932 553.067 584.265 533.6 578.932 509.6C574.132 485.6 574.399 460 579.732 432.8C582.932 413.067 589.865 393.067 600.532 372.8C611.732 352 625.599 333.333 642.132 316.8C658.665 300.267 677.065 286.933 697.332 276.8C717.599 266.667 739.199 261.6 762.132 261.6C781.865 261.6 796.265 265.6 805.332 273.6C814.932 281.067 818.666 291.467 816.532 304.8C813.866 317.6 806.399 329.867 794.132 341.6C781.865 353.333 766.132 364 746.932 373.6C727.732 382.667 706.132 390.667 682.132 397.6C658.665 404.533 634.132 409.333 608.532 412L610.132 401.6C651.199 395.733 685.599 386.4 713.332 373.6C741.599 360.267 758.132 342.933 762.932 321.6C766.665 307.2 764.265 297.333 755.732 292C747.199 286.133 737.599 283.2 726.932 283.2C708.799 283.2 693.065 288.8 679.732 300C666.399 311.2 655.465 326.133 646.932 344.8C638.399 363.467 632.265 384 628.532 406.4C622.665 436.267 621.865 462.933 626.132 486.4C630.932 509.867 640.265 528.533 654.132 542.4C667.999 556.267 686.132 563.2 708.532 563.2C721.332 563.2 734.665 561.333 748.532 557.6C762.399 553.867 775.999 546.933 789.332 536.8C790.932 535.733 792.532 536.267 794.132 538.4C796.265 540.533 796.532 542.4 794.932 544C774.666 560.533 754.932 572.533 735.732 580C716.532 586.933 697.332 590.4 678.132 590.4Z" fill="white"/>
<path d="M1301.06 72C1323.46 72 1347.46 73.8667 1373.06 77.6C1399.19 81.3333 1419.72 86.6667 1434.66 93.6C1439.46 95.2 1442.66 97.3333 1444.26 100C1445.86 102.133 1446.92 106.133 1447.46 112L1457.06 223.2C1457.06 224.8 1455.72 225.867 1453.06 226.4C1450.92 226.933 1449.32 226.133 1448.26 224C1430.66 182.933 1406.66 150.667 1376.26 127.2C1346.39 103.733 1310.92 92 1269.86 92C1234.12 92 1203.72 101.067 1178.66 119.2C1154.12 137.333 1135.46 162.667 1122.66 195.2C1110.39 227.2 1104.26 264.533 1104.26 307.2C1104.26 344 1108.79 378.667 1117.86 411.2C1126.92 443.2 1139.72 471.467 1156.26 496C1172.79 520 1192.52 538.933 1215.46 552.8C1238.39 566.667 1263.72 573.6 1291.46 573.6C1325.59 573.6 1355.99 562.4 1382.66 540C1409.86 517.6 1434.12 482.933 1455.46 436C1456.52 433.867 1458.39 433.067 1461.06 433.6C1463.72 434.133 1465.06 435.2 1465.06 436.8L1453.06 545.6C1451.99 552 1450.66 556.267 1449.06 558.4C1447.99 560 1445.06 561.867 1440.26 564C1415.72 573.067 1390.92 579.733 1365.86 584C1341.32 588.267 1317.32 590.4 1293.86 590.4C1242.12 590.4 1197.86 582.667 1161.06 567.2C1124.26 551.2 1094.12 530.4 1070.66 504.8C1047.72 478.667 1030.66 450.4 1019.46 420C1008.79 389.067 1003.46 358.667 1003.46 328.8C1003.46 289.333 1011.46 253.867 1027.46 222.4C1043.99 190.933 1066.12 164 1093.86 141.6C1122.12 119.2 1153.86 102.133 1189.06 90.4C1224.79 78.1333 1262.12 72 1301.06 72Z" fill="white"/>
<path d="M1689.01 591.2C1655.41 591.2 1626.35 583.467 1601.81 568C1577.28 552.533 1558.35 532 1545.01 506.4C1531.68 480.267 1525.01 452.267 1525.01 422.4C1525.01 394.667 1530.35 370.667 1541.01 350.4C1551.68 330.133 1565.81 313.6 1583.41 300.8C1601.01 287.467 1620.21 277.6 1641.01 271.2C1661.81 264.8 1682.35 261.6 1702.61 261.6C1736.75 261.6 1765.81 269.6 1789.81 285.6C1814.35 301.6 1833.01 322.133 1845.81 347.2C1858.61 372.267 1865.01 398.933 1865.01 427.2C1865.01 459.733 1856.75 488.533 1840.21 513.6C1824.21 538.133 1802.88 557.333 1776.21 571.2C1749.55 584.533 1720.48 591.2 1689.01 591.2ZM1713.01 574.4C1734.35 574.4 1750.35 564 1761.01 543.2C1771.68 522.4 1777.01 493.067 1777.01 455.2C1777.01 416.267 1771.95 383.733 1761.81 357.6C1752.21 331.467 1739.68 311.733 1724.21 298.4C1708.75 285.067 1692.48 278.4 1675.41 278.4C1654.61 278.4 1638.61 287.733 1627.41 306.4C1616.75 325.067 1611.41 353.867 1611.41 392.8C1611.41 429.067 1615.95 461.067 1625.01 488.8C1634.08 516 1646.35 537.067 1661.81 552C1677.28 566.933 1694.35 574.4 1713.01 574.4Z" fill="white"/>
<path d="M2137.22 580.8C2135.62 580.8 2134.82 579.2 2134.82 576C2134.82 572.8 2135.62 571.2 2137.22 571.2C2153.75 571.2 2164.95 567.467 2170.82 560C2176.69 552 2179.62 537.333 2179.62 516V400.8C2179.62 372 2174.29 350.667 2163.62 336.8C2153.49 322.933 2137.22 316 2114.82 316C2098.82 316 2082.29 320 2065.22 328C2048.69 336 2035.35 346.933 2025.22 360.8L2021.22 351.2C2039.89 324.533 2060.95 303.2 2084.42 287.2C2107.89 270.667 2133.49 262.4 2161.22 262.4C2191.09 262.4 2214.02 271.733 2230.02 290.4C2246.55 309.067 2254.82 333.067 2254.82 362.4V516C2254.82 537.333 2257.75 552 2263.62 560C2270.02 567.467 2281.49 571.2 2298.02 571.2C2299.62 571.2 2300.42 572.8 2300.42 576C2300.42 579.2 2299.62 580.8 2298.02 580.8C2287.35 580.8 2275.09 580.533 2261.22 580C2247.35 579.467 2232.69 579.2 2217.22 579.2C2202.29 579.2 2187.89 579.467 2174.02 580C2160.15 580.533 2147.89 580.8 2137.22 580.8ZM1922.02 580.8C1920.42 580.8 1919.62 579.2 1919.62 576C1919.62 572.8 1920.42 571.2 1922.02 571.2C1938.55 571.2 1949.75 567.467 1955.62 560C1961.49 552 1964.42 537.333 1964.42 516V365.6C1964.42 349.067 1962.55 337.067 1958.82 329.6C1955.09 321.6 1948.69 317.6 1939.62 317.6C1934.82 317.6 1929.22 318.667 1922.82 320.8C1916.42 322.4 1909.22 325.067 1901.22 328.8C1899.09 329.867 1897.49 328.8 1896.42 325.6C1895.35 322.4 1895.35 320.533 1896.42 320L2007.62 265.6C2010.82 264.533 2012.69 264 2013.22 264C2019.09 264 2024.95 270.4 2030.82 283.2C2036.69 296 2039.62 314.4 2039.62 338.4V516C2039.62 537.333 2042.55 552 2048.42 560C2054.82 567.467 2066.29 571.2 2082.82 571.2C2084.42 571.2 2085.22 572.8 2085.22 576C2085.22 579.2 2084.42 580.8 2082.82 580.8C2072.15 580.8 2059.89 580.533 2046.02 580C2032.15 579.467 2017.49 579.2 2002.02 579.2C1987.09 579.2 1972.69 579.467 1958.82 580C1944.95 580.533 1932.69 580.8 1922.02 580.8Z" fill="white"/>
<path d="M2333.51 580.8C2331.38 580.8 2330.31 579.2 2330.31 576C2330.31 572.8 2331.38 571.2 2333.51 571.2C2353.78 571.2 2366.85 567.733 2372.71 560.8C2378.58 553.867 2381.51 538.933 2381.51 516V336C2381.51 324.267 2379.91 315.733 2376.71 310.4C2373.51 304.533 2368.18 300.8 2360.71 299.2C2353.25 297.067 2343.11 296 2330.31 296C2328.71 296 2327.91 293.6 2327.91 288.8C2327.91 284 2328.71 281.6 2330.31 281.6C2348.98 281.6 2361.78 279.2 2368.71 274.4C2375.65 269.067 2379.38 259.733 2379.91 246.4C2382.58 187.2 2391.91 139.733 2407.91 104C2423.91 67.7333 2446.58 41.3333 2475.91 24.8C2505.25 8.26665 2540.71 0 2582.31 0C2619.11 0 2647.65 5.59999 2667.91 16.8C2688.71 28 2699.11 42.9333 2699.11 61.6C2699.11 71.2 2695.91 79.4666 2689.51 86.4C2683.11 92.8 2673.25 96 2659.91 96C2646.05 96 2635.65 92 2628.71 84C2621.78 76 2615.65 66.6666 2610.31 56C2604.98 45.3333 2598.31 36 2590.31 28C2582.85 20 2571.65 16 2556.71 16C2539.65 16 2523.38 23.2 2507.91 37.6C2492.45 52 2479.91 74.9333 2470.31 106.4C2461.25 137.867 2456.71 178.933 2456.71 229.6V516C2456.71 531.467 2458.31 543.2 2461.51 551.2C2464.71 559.2 2471.38 564.533 2481.51 567.2C2491.65 569.867 2507.11 571.2 2527.91 571.2C2530.05 571.2 2531.11 572.8 2531.11 576C2531.11 579.2 2530.05 580.8 2527.91 580.8C2509.25 580.8 2490.85 580.533 2472.71 580C2455.11 579.467 2436.98 579.2 2418.31 579.2C2402.85 579.2 2387.65 579.467 2372.71 580C2358.31 580.533 2345.25 580.8 2333.51 580.8ZM2542.31 312.8C2521.51 308 2501.51 304.8 2482.31 303.2C2463.65 301.067 2443.65 300 2422.31 300V279.2C2442.58 279.2 2462.58 278.4 2482.31 276.8C2502.05 275.2 2522.85 273.333 2544.71 271.2C2546.31 271.2 2547.65 273.333 2548.71 277.6C2549.78 281.333 2550.31 285.6 2550.31 290.4C2550.31 295.733 2549.25 301.067 2547.11 306.4C2545.51 311.2 2543.91 313.333 2542.31 312.8ZM2587.91 580.8C2586.85 580.8 2586.31 579.2 2586.31 576C2586.31 572.8 2586.85 571.2 2587.91 571.2C2604.45 571.2 2615.65 567.467 2621.51 560C2627.91 552 2631.11 537.333 2631.11 516V372.8C2631.11 347.2 2627.38 331.467 2619.91 325.6C2612.45 319.2 2598.31 320.8 2577.51 330.4C2575.38 330.933 2573.51 329.6 2571.91 326.4C2570.85 323.2 2570.85 321.333 2571.91 320.8L2692.71 264.8C2695.38 263.2 2698.58 264 2702.31 267.2C2706.05 269.867 2707.91 272.533 2707.91 275.2C2707.91 281.6 2707.38 292.267 2706.31 307.2C2705.78 322.133 2705.51 343.467 2705.51 371.2V516C2705.51 537.333 2708.45 552 2714.31 560C2720.71 567.467 2732.18 571.2 2748.71 571.2C2750.85 571.2 2751.91 572.8 2751.91 576C2751.91 579.2 2750.85 580.8 2748.71 580.8C2738.05 580.8 2725.78 580.533 2711.91 580C2698.58 579.467 2684.18 579.2 2668.71 579.2C2653.25 579.2 2638.58 579.467 2624.71 580C2610.85 580.533 2598.58 580.8 2587.91 580.8Z" fill="white"/>
<path d="M2919.36 591.2C2896.43 591.2 2875.36 585.067 2856.16 572.8C2837.5 560.533 2822.3 542.933 2810.56 520C2799.36 496.533 2793.76 468.267 2793.76 435.2C2793.76 402.667 2799.63 375.467 2811.36 353.6C2823.1 331.2 2838.03 313.333 2856.16 300C2874.83 286.667 2894.83 277.067 2916.16 271.2C2937.5 264.8 2957.76 261.6 2976.96 261.6C2996.16 261.6 3014.03 264 3030.56 268.8C3047.1 273.6 3062.03 279.467 3075.36 286.4L3056.96 351.2C3045.76 327.2 3032.96 309.867 3018.56 299.2C3004.16 288 2986.3 282.4 2964.96 282.4C2937.76 282.4 2916.16 292 2900.16 311.2C2884.16 329.867 2876.16 362.667 2876.16 409.6C2876.16 440 2879.9 465.867 2887.36 487.2C2894.83 508.533 2905.23 524.8 2918.56 536C2931.9 547.2 2946.83 552.8 2963.36 552.8C2984.7 552.8 3003.36 546.933 3019.36 535.2C3035.36 523.467 3050.83 509.333 3065.76 492.8L3073.76 500C3062.56 512.8 3049.23 526.4 3033.76 540.8C3018.83 554.667 3001.76 566.667 2982.56 576.8C2963.9 586.4 2942.83 591.2 2919.36 591.2ZM3114.56 11.2V488C3114.56 506.133 3116.16 518.933 3119.36 526.4C3123.1 533.867 3128.96 537.6 3136.96 537.6C3140.7 537.6 3145.23 536.8 3150.56 535.2C3156.43 533.6 3162.83 531.467 3169.76 528.8C3171.36 527.733 3172.96 528.8 3174.56 532C3176.16 534.667 3176.43 536.533 3175.36 537.6L3064.96 591.2C3063.36 591.733 3062.03 592 3060.96 592C3055.63 592 3050.56 585.333 3045.76 572C3041.5 558.667 3039.36 539.733 3039.36 515.2V109.6C3039.36 91.4667 3037.76 78.4 3034.56 70.4C3031.36 61.8667 3025.23 57.6 3016.16 57.6C3012.43 57.6 3007.9 58.4 3002.56 60C2997.76 61.6 2992.43 63.7333 2986.56 66.4C2984.43 66.9333 2982.56 65.6 2980.96 62.4C2979.36 59.2 2979.1 57.3333 2980.16 56.8L3097.76 1.59998C3098.83 1.06665 3099.9 0.79999 3100.96 0.79999C3103.63 0.79999 3106.56 2.13332 3109.76 4.79999C3112.96 6.93332 3114.56 9.06666 3114.56 11.2Z" fill="white"/>
<path d="M3363.98 590.4C3329.31 590.4 3299.71 583.2 3275.18 568.8C3251.18 554.4 3232.78 535.467 3219.98 512C3207.71 488 3201.58 462.667 3201.58 436C3201.58 404.533 3209.58 376 3225.58 350.4C3241.58 324.267 3263.18 303.467 3290.38 288C3318.11 272.533 3349.31 264.8 3383.98 264.8C3417.04 264.8 3442.38 272 3459.98 286.4C3477.58 300.267 3486.38 319.467 3486.38 344C3486.38 349.867 3485.84 355.2 3484.78 360C3483.71 364.8 3481.31 367.2 3477.58 367.2H3400.78C3401.84 342.133 3398.91 321.6 3391.98 305.6C3385.04 289.067 3372.51 280.8 3354.38 280.8C3333.04 280.8 3315.71 292 3302.38 314.4C3289.04 336.267 3282.38 365.6 3282.38 402.4C3282.38 432.267 3287.18 458.4 3296.78 480.8C3306.38 503.2 3320.24 520.533 3338.38 532.8C3356.51 545.067 3378.38 551.2 3403.98 551.2C3416.78 551.2 3430.38 549.333 3444.78 545.6C3459.71 541.867 3473.04 536.267 3484.78 528.8C3485.84 527.733 3487.18 528.267 3488.78 530.4C3490.91 532.533 3491.44 534.4 3490.38 536C3470.64 555.733 3450.38 569.867 3429.58 578.4C3409.31 586.4 3387.44 590.4 3363.98 590.4ZM3254.38 368.8L3253.58 353.6L3428.78 349.6V367.2L3254.38 368.8Z" fill="white"/>
<path d="M3756.75 580.8C3755.15 580.8 3754.35 579.2 3754.35 576C3754.35 572.8 3755.15 571.2 3756.75 571.2C3773.28 571.2 3784.48 567.467 3790.35 560C3796.22 552 3799.15 537.333 3799.15 516V400.8C3799.15 372 3793.82 350.667 3783.15 336.8C3773.02 322.933 3756.75 316 3734.35 316C3718.35 316 3701.82 320 3684.75 328C3668.22 336 3654.88 346.933 3644.75 360.8L3640.75 351.2C3659.42 324.533 3680.48 303.2 3703.95 287.2C3727.42 270.667 3753.02 262.4 3780.75 262.4C3810.62 262.4 3833.55 271.733 3849.55 290.4C3866.08 309.067 3874.35 333.067 3874.35 362.4V516C3874.35 537.333 3877.28 552 3883.15 560C3889.55 567.467 3901.02 571.2 3917.55 571.2C3919.15 571.2 3919.95 572.8 3919.95 576C3919.95 579.2 3919.15 580.8 3917.55 580.8C3906.88 580.8 3894.62 580.533 3880.75 580C3866.88 579.467 3852.22 579.2 3836.75 579.2C3821.82 579.2 3807.42 579.467 3793.55 580C3779.68 580.533 3767.42 580.8 3756.75 580.8ZM3541.55 580.8C3539.95 580.8 3539.15 579.2 3539.15 576C3539.15 572.8 3539.95 571.2 3541.55 571.2C3558.08 571.2 3569.28 567.467 3575.15 560C3581.02 552 3583.95 537.333 3583.95 516V365.6C3583.95 349.067 3582.08 337.067 3578.35 329.6C3574.62 321.6 3568.22 317.6 3559.15 317.6C3554.35 317.6 3548.75 318.667 3542.35 320.8C3535.95 322.4 3528.75 325.067 3520.75 328.8C3518.62 329.867 3517.02 328.8 3515.95 325.6C3514.88 322.4 3514.88 320.533 3515.95 320L3627.15 265.6C3630.35 264.533 3632.22 264 3632.75 264C3638.62 264 3644.48 270.4 3650.35 283.2C3656.22 296 3659.15 314.4 3659.15 338.4V516C3659.15 537.333 3662.08 552 3667.95 560C3674.35 567.467 3685.82 571.2 3702.35 571.2C3703.95 571.2 3704.75 572.8 3704.75 576C3704.75 579.2 3703.95 580.8 3702.35 580.8C3691.68 580.8 3679.42 580.533 3665.55 580C3651.68 579.467 3637.02 579.2 3621.55 579.2C3606.62 579.2 3592.22 579.467 3578.35 580C3564.48 580.533 3552.22 580.8 3541.55 580.8Z" fill="white"/>
<path d="M4078.64 590.4C4065.84 590.4 4052.78 588.267 4039.44 584C4026.64 579.733 4015.71 572.267 4006.64 561.6C3998.11 550.933 3993.84 536 3993.84 516.8V339.2C3993.84 328 3992.51 319.2 3989.84 312.8C3987.18 306.4 3982.91 301.867 3977.04 299.2C3971.18 296.533 3963.18 295.2 3953.04 295.2C3950.91 295.2 3949.84 292.8 3949.84 288C3949.84 283.2 3950.91 280.8 3953.04 280.8C3980.24 279.733 4002.38 273.867 4019.44 263.2C4036.51 252 4049.31 235.733 4057.84 214.4C4058.91 212.267 4061.04 211.2 4064.24 211.2C4067.98 211.2 4069.84 212.267 4069.84 214.4V490.4C4069.84 511.733 4075.18 526.933 4085.84 536C4097.04 545.067 4110.64 549.6 4126.64 549.6C4138.91 549.6 4150.38 547.2 4161.04 542.4C4172.24 537.067 4181.58 531.467 4189.04 525.6C4190.64 524 4192.51 524.533 4194.64 527.2C4197.31 529.333 4197.58 531.2 4195.44 532.8C4175.71 552.533 4156.51 567.2 4137.84 576.8C4119.71 585.867 4099.98 590.4 4078.64 590.4ZM4170.64 312.8C4148.78 308 4127.44 304.8 4106.64 303.2C4086.38 301.067 4064.78 300 4041.84 300V279.2C4063.71 279.2 4085.04 278.4 4105.84 276.8C4127.18 275.2 4149.84 273.333 4173.84 271.2C4174.91 271.2 4175.98 273.333 4177.04 277.6C4178.64 281.333 4179.44 285.6 4179.44 290.4C4179.44 295.733 4178.38 301.067 4176.24 306.4C4174.64 311.2 4172.78 313.333 4170.64 312.8Z" fill="white"/>
<path d="M4304.26 590.6C4289.32 590.6 4277.32 586.333 4268.26 577.8C4259.72 568.733 4255.46 556.733 4255.46 541.8C4255.46 527.933 4259.72 516.733 4268.26 508.2C4277.32 499.667 4289.32 495.4 4304.26 495.4C4319.72 495.4 4331.46 499.667 4339.46 508.2C4347.46 516.733 4351.46 527.933 4351.46 541.8C4351.46 556.733 4347.46 568.733 4339.46 577.8C4331.46 586.333 4319.72 590.6 4304.26 590.6Z" fill="#EB0032"/>
</svg>
