<svg width="4887" height="501" viewBox="0 0 4887 501" fill="none" xmlns="http://www.w3.org/2000/svg">
<path d="M38.5833 109C38.5833 122.667 41.9167 134.5 48.5833 144.5C55.5833 154.167 64.4167 162.667 75.0833 170C85.75 177.333 97.0833 184.667 109.083 192C121.417 199 133.25 206.5 144.583 214.5C156.25 222.5 165.75 232 173.083 243C180.75 254 184.583 267.5 184.583 283.5C184.583 299.5 180.583 314 172.583 327C164.583 339.667 152.917 349.833 137.583 357.5C122.583 365.167 103.917 369 81.5833 369C73.5833 369 65.5833 368.333 57.5833 367C49.9167 366 42.0833 364.167 34.0833 361.5C26.4167 358.833 18.75 355.5 11.0833 351.5C9.41667 350.5 8.25 349.333 7.58333 348C7.25 346.333 6.91667 344.333 6.58333 342L0.0833336 274C-0.25 272.333 0.416666 271.5 2.08333 271.5C4.08333 271.167 5.25 271.667 5.58333 273C7.91667 283 11.25 293.167 15.5833 303.5C19.9167 313.833 25.5833 323.333 32.5833 332C39.5833 340.667 48.0833 347.667 58.0833 353C68.0833 358.333 79.75 361 93.0833 361C102.75 361 112.083 359.167 121.083 355.5C130.417 351.833 137.917 345.833 143.583 337.5C149.583 329.167 152.583 317.833 152.583 303.5C152.583 287.167 148.917 273.667 141.583 263C134.583 252 125.583 242.5 114.583 234.5C103.583 226.5 91.9167 219 79.5833 212C67.9167 204.667 56.5833 197.167 45.5833 189.5C34.9167 181.833 26.0833 172.833 19.0833 162.5C12.4167 151.833 9.08333 138.667 9.08333 123C9.08333 105.333 13.5833 90.8333 22.5833 79.5C31.5833 67.8333 43.25 59.1666 57.5833 53.5C71.9167 47.8333 86.75 45 102.083 45C111.417 45 121.083 46 131.083 48C141.083 49.6667 150.917 52.6667 160.583 57C163.25 58 165.083 59.3333 166.083 61C167.417 62.3333 168.083 63.8333 168.083 65.5L171.583 122.5C171.583 123.833 170.75 124.667 169.083 125C167.417 125 166.25 124.333 165.583 123C164.917 116.333 163.083 109 160.083 101C157.083 92.6667 152.75 84.8333 147.083 77.5C141.417 70.1666 134.25 64.1666 125.583 59.5C116.917 54.8333 106.417 52.5 94.0833 52.5C81.0833 52.5 70.4167 55.3333 62.0833 61C54.0833 66.3333 48.0833 73.3333 44.0833 82C40.4167 90.3333 38.5833 99.3333 38.5833 109Z" fill="white"/>
<path d="M327.189 369.5C307.522 369.5 290.355 364.667 275.689 355C261.022 345.333 249.689 332.5 241.689 316.5C233.689 300.167 229.689 282.667 229.689 264C229.689 246.667 232.855 231.667 239.189 219C245.522 206.333 254.022 196 264.689 188C275.355 179.667 286.855 173.5 299.189 169.5C311.855 165.5 324.189 163.5 336.189 163.5C356.522 163.5 373.855 168.5 388.189 178.5C402.855 188.5 414.022 201.333 421.689 217C429.355 232.667 433.189 249.167 433.189 266.5C433.189 287.833 428.355 306.167 418.689 321.5C409.022 336.833 396.189 348.667 380.189 357C364.189 365.333 346.522 369.5 327.189 369.5ZM341.689 360C359.355 360 373.355 353.833 383.689 341.5C394.022 328.833 399.189 308.5 399.189 280.5C399.189 259.5 395.689 241 388.689 225C382.022 208.667 372.689 196 360.689 187C348.689 177.667 335.022 173 319.689 173C302.022 173 288.189 179.5 278.189 192.5C268.189 205.5 263.189 224.167 263.189 248.5C263.189 268.833 266.522 287.5 273.189 304.5C279.855 321.5 289.022 335 300.689 345C312.689 355 326.355 360 341.689 360Z" fill="white"/>
<path d="M466.947 363C465.947 363 465.447 362 465.447 360C465.447 358 465.947 357 466.947 357C481.28 357 490.613 354.833 494.947 350.5C499.28 346.167 501.447 336.833 501.447 322.5V210C501.447 202 500.613 196.167 498.947 192.5C497.28 188.5 493.947 186 488.947 185C483.947 183.667 475.947 183 464.947 183C463.947 183 463.447 182 463.447 180C463.447 177.667 463.947 176.5 464.947 176.5C478.947 176.5 488.28 174.833 492.947 171.5C497.613 168.167 500.113 162.333 500.447 154C502.113 98.6667 512.113 59.1666 530.447 35.5C549.113 11.8333 575.78 0 610.447 0C628.113 0 642.113 2.66666 652.447 7.99999C663.113 13 668.447 19.1666 668.447 26.5C668.447 31.8333 666.613 35.8333 662.947 38.5C659.613 41.1667 655.613 42.5 650.947 42.5C646.947 42.5 643.447 41.3333 640.447 39C637.447 36.6667 634.28 33.1667 630.947 28.5C625.947 21.8333 620.613 16.8333 614.947 13.5C609.28 10.1666 601.947 8.49998 592.947 8.49998C574.613 8.49998 559.447 19.1666 547.447 40.5C535.78 61.8333 529.947 96.1667 529.947 143.5V322.5C529.947 332.167 530.947 339.5 532.947 344.5C535.28 349.5 539.947 352.833 546.947 354.5C553.947 356.167 564.613 357 578.947 357C579.947 357 580.447 358 580.447 360C580.447 362 579.947 363 578.947 363C567.947 363 557.28 362.833 546.947 362.5C536.613 362.167 525.947 362 514.947 362C506.28 362 497.613 362.167 488.947 362.5C480.613 362.833 473.28 363 466.947 363ZM686.947 369C678.947 369 671.28 367.667 663.947 365C656.613 362.667 650.613 358.5 645.947 352.5C641.613 346.5 639.447 338.333 639.447 328V210C639.447 203.667 638.78 198.833 637.447 195.5C636.113 192.167 631.947 189.667 624.947 188C618.28 186.333 606.947 185.5 590.947 185.5C574.947 185.167 552.28 185 522.947 185V175.5C537.947 175.5 552.28 175.333 565.947 175C579.947 174.667 591.613 174.333 600.947 174C615.947 173.667 627.447 172.5 635.447 170.5C643.447 168.167 649.28 164.5 652.947 159.5C656.613 154.167 659.113 147.167 660.447 138.5C660.447 137.5 661.613 137 663.947 137C666.613 137 667.947 137.5 667.947 138.5V311C667.947 324.667 671.28 334.833 677.947 341.5C684.947 348.167 694.613 351.5 706.947 351.5C715.947 351.5 723.78 350.167 730.447 347.5C737.447 344.5 743.113 341.333 747.447 338C748.78 337 749.947 337.333 750.947 339C752.28 340.333 752.28 341.5 750.947 342.5C738.613 351.833 727.447 358.667 717.447 363C707.78 367 697.613 369 686.947 369ZM735.947 194.5C722.613 191.167 709.947 189 697.947 188C685.947 187 673.28 186.5 659.947 186.5V175.5C672.613 175.5 685.113 175 697.447 174C710.113 173 723.447 171.833 737.447 170.5C738.447 170.5 739.28 171.667 739.947 174C740.613 176.333 740.947 179.167 740.947 182.5C740.947 184.833 740.28 187.5 738.947 190.5C737.947 193.5 736.947 194.833 735.947 194.5Z" fill="white"/>
<path d="M983.97 362.5L913.97 211.5C907.303 196.5 901.803 186.833 897.47 182.5C893.137 178.167 887.803 176 881.47 176C880.803 176 880.47 175 880.47 173C880.47 171 880.803 170 881.47 170C886.47 170 891.803 170.167 897.47 170.5C903.137 170.833 908.97 171 914.97 171C926.303 171 935.97 170.833 943.97 170.5C952.303 170.167 959.803 170 966.47 170C967.47 170 967.97 171 967.97 173C967.97 175 967.47 176 966.47 176C956.47 176 948.47 177.333 942.47 180C936.803 182.667 935.803 187.833 939.47 195.5L1003.47 332L989.47 352L1047.47 210C1052.47 198 1052.14 189.333 1046.47 184C1040.8 178.667 1029.14 176 1011.47 176C1010.8 176 1010.47 175 1010.47 173C1010.47 171 1010.8 170 1011.47 170C1019.47 170 1026.97 170.167 1033.97 170.5C1041.3 170.833 1050.64 171 1061.97 171C1069.3 171 1075.14 170.833 1079.47 170.5C1083.8 170.167 1089.14 170 1095.47 170C1096.47 170 1096.97 171 1096.97 173C1096.97 175 1096.47 176 1095.47 176C1087.47 176 1080.64 178.667 1074.97 184C1069.3 189 1063.47 198.5 1057.47 212.5L994.97 362.5C994.637 363.833 992.803 364.5 989.47 364.5C986.47 364.5 984.637 363.833 983.97 362.5ZM865.97 362.5L795.97 211.5C788.97 196.5 783.137 186.833 778.47 182.5C774.137 178.167 768.803 176 762.47 176C761.47 176 760.97 175 760.97 173C760.97 171 761.47 170 762.47 170C767.47 170 772.803 170.167 778.47 170.5C784.47 170.833 790.637 171 796.97 171C807.637 171 816.97 170.833 824.97 170.5C833.303 170.167 841.137 170 848.47 170C849.47 170 849.97 171 849.97 173C849.97 175 849.47 176 848.47 176C837.803 176 829.637 177.333 823.97 180C818.637 182.667 817.803 187.833 821.47 195.5L885.97 332L870.97 352L925.47 220.5L933.97 226L876.97 362.5C876.637 363.833 874.803 364.5 871.47 364.5C868.47 364.5 866.637 363.833 865.97 362.5Z" fill="white"/>
<path d="M1249.06 366C1247.73 366.667 1246.39 367 1245.06 367C1240.73 367 1236.56 363.5 1232.56 356.5C1228.56 349.167 1226.56 338.667 1226.56 325V235.5C1226.56 219.833 1225.06 207.667 1222.06 199C1219.39 190.333 1215.56 184.333 1210.56 181C1205.89 177.667 1200.56 176 1194.56 176C1186.23 176 1179.39 178.167 1174.06 182.5C1168.73 186.5 1164.73 191.667 1162.06 198C1159.39 204.333 1157.56 210.667 1156.56 217C1156.23 221.667 1154.73 226 1152.06 230C1149.73 234 1145.06 236 1138.06 236C1132.73 236 1128.56 234.667 1125.56 232C1122.56 229.333 1121.06 225.667 1121.06 221C1121.06 215 1124.06 208.833 1130.06 202.5C1136.06 195.833 1143.56 189.833 1152.56 184.5C1161.89 178.833 1171.56 174.333 1181.56 171C1191.89 167.333 1201.56 165.5 1210.56 165.5C1223.23 165.5 1233.73 170 1242.06 179C1250.39 187.667 1254.56 201.5 1254.56 220.5V309C1254.56 320.667 1256.06 329.167 1259.06 334.5C1262.06 339.833 1266.89 342.5 1273.56 342.5C1279.56 342.5 1287.89 340.333 1298.56 336C1300.23 335.333 1301.39 336 1302.06 338C1302.73 339.667 1302.23 340.833 1300.56 341.5L1249.06 366ZM1151.06 366.5C1140.39 366.5 1132.39 363.667 1127.06 358C1121.73 352 1119.06 345.167 1119.06 337.5C1119.06 328.167 1122.73 320.833 1130.06 315.5C1137.39 309.833 1149.39 304.167 1166.06 298.5L1231.56 275L1233.06 280.5L1175.06 302.5C1167.39 305.5 1161.89 308.833 1158.56 312.5C1155.56 316.167 1154.06 320.833 1154.06 326.5C1154.06 333.5 1156.06 339 1160.06 343C1164.06 346.667 1169.23 348.5 1175.56 348.5C1179.23 348.5 1182.73 348.167 1186.06 347.5C1189.39 346.5 1192.73 345.167 1196.06 343.5L1238.56 322L1239.56 328L1196.06 351.5C1186.06 356.5 1177.73 360.333 1171.06 363C1164.39 365.333 1157.73 366.5 1151.06 366.5Z" fill="white"/>
<path d="M1373.03 227.5L1371.03 222C1383.37 207 1393.53 195.5 1401.53 187.5C1409.53 179.167 1416.37 173.5 1422.03 170.5C1428.03 167.167 1433.7 165.5 1439.03 165.5C1446.03 165.5 1452.87 167.5 1459.53 171.5C1466.53 175.5 1470.03 180.333 1470.03 186C1470.03 190.333 1468.53 194 1465.53 197C1462.87 200 1458.87 201.5 1453.53 201.5C1449.2 201.5 1445.53 200.167 1442.53 197.5C1439.53 194.833 1436.37 192.333 1433.03 190C1429.7 187.667 1425.37 186.5 1420.03 186.5C1417.03 186.5 1413.87 187.333 1410.53 189C1407.2 190.667 1402.7 194.5 1397.03 200.5C1391.37 206.167 1383.37 215.167 1373.03 227.5ZM1324.03 363C1323.03 363 1322.53 362 1322.53 360C1322.53 358 1323.03 357 1324.03 357C1337.03 357 1345.37 354.833 1349.03 350.5C1353.03 345.833 1355.03 336.5 1355.03 322.5V223.5C1355.03 212.5 1353.7 204.5 1351.03 199.5C1348.7 194.167 1344.2 191.5 1337.53 191.5C1334.2 191.5 1330.2 192.167 1325.53 193.5C1321.2 194.833 1316.2 196.667 1310.53 199C1309.2 199.333 1308.03 198.667 1307.03 197C1306.37 195.333 1306.7 194.167 1308.03 193.5L1366.03 166C1367.03 165.667 1368.03 165.5 1369.03 165.5C1371.37 165.5 1374.37 169 1378.03 176C1381.7 183 1383.53 193.167 1383.53 206.5V322.5C1383.53 331.833 1384.7 339.167 1387.03 344.5C1389.37 349.5 1394.03 352.833 1401.03 354.5C1408.03 356.167 1418.37 357 1432.03 357C1433.37 357 1434.03 358 1434.03 360C1434.03 362 1433.37 363 1432.03 363C1424.03 363 1414.53 362.833 1403.53 362.5C1392.87 362.167 1381.53 362 1369.53 362C1360.87 362 1352.53 362.167 1344.53 362.5C1336.53 362.833 1329.7 363 1324.03 363Z" fill="white"/>
<path d="M1589.8 369C1569.14 369 1551.8 364.5 1537.8 355.5C1523.8 346.167 1513.3 334.167 1506.3 319.5C1499.3 304.833 1495.8 289.333 1495.8 273C1495.8 252.667 1500.47 234.5 1509.8 218.5C1519.47 202.167 1532.3 189.333 1548.3 180C1564.64 170.333 1582.97 165.5 1603.3 165.5C1621.64 165.5 1635.64 170 1645.3 179C1655.3 187.667 1660.3 199.667 1660.3 215C1660.3 218.667 1659.97 221.5 1659.3 223.5C1658.64 225.5 1656.97 226.5 1654.3 226.5H1625.3C1626.64 210.167 1623.64 197.667 1616.3 189C1609.3 180 1599.3 175.5 1586.3 175.5C1567.64 175.5 1553.3 182.5 1543.3 196.5C1533.64 210.5 1528.8 229.5 1528.8 253.5C1528.8 272.5 1531.8 289.333 1537.8 304C1544.14 318.667 1553.14 330.333 1564.8 339C1576.8 347.333 1590.97 351.5 1607.3 351.5C1615.97 351.5 1624.8 350.167 1633.8 347.5C1642.8 344.833 1651.3 340.667 1659.3 335C1659.97 334.333 1660.8 334.833 1661.8 336.5C1663.14 337.833 1663.47 339 1662.8 340C1650.8 350.333 1638.8 357.833 1626.8 362.5C1614.8 366.833 1602.47 369 1589.8 369ZM1519.8 227.5L1519.3 221L1633.3 218.5V226.5L1519.8 227.5Z" fill="white"/>
<path d="M1781.59 500.5C1766.59 500.5 1755.09 497.667 1747.09 492C1739.09 486.333 1735.76 479.667 1737.09 472C1738.09 465.333 1740.92 460.333 1745.59 457C1749.92 453.667 1754.76 452 1760.09 452C1768.09 452 1773.59 453.833 1776.59 457.5C1779.26 461.5 1780.92 466 1781.59 471C1782.26 476.333 1783.26 480.833 1784.59 484.5C1785.59 488.5 1788.26 490.5 1792.59 490.5C1795.92 490.5 1798.76 487.833 1801.09 482.5C1803.42 477.5 1805.76 467.5 1808.09 452.5C1810.76 437.5 1814.26 415.5 1818.59 386.5L1844.09 210C1845.42 201.667 1845.59 195.667 1844.59 192C1843.92 188.333 1841.59 186 1837.59 185C1833.92 184 1827.92 183.5 1819.59 183.5C1818.26 183.5 1817.59 182.167 1817.59 179.5C1817.92 176.833 1818.59 175.5 1819.59 175.5C1830.26 175.5 1837.92 174 1842.59 171C1847.59 168 1850.76 162.333 1852.09 154C1857.09 123.667 1862.59 98.5 1868.59 78.5C1874.59 58.5 1881.76 42.8333 1890.09 31.5C1898.42 19.8333 1908.42 11.6667 1920.09 7C1931.76 2.33333 1945.42 0 1961.09 0C1976.09 0 1987.59 2.83333 1995.59 8.49998C2003.59 13.8333 2006.92 20.5 2005.59 28.5C2004.59 35.1667 2001.76 40.3333 1997.09 44C1992.42 47.6667 1987.09 49.5 1981.09 49.5C1972.09 49.5 1965.92 47.5 1962.59 43.5C1959.26 39.5 1957.26 35 1956.59 30C1955.92 25 1955.09 20.5 1954.09 16.5C1953.09 12.5 1950.09 10.5 1945.09 10.5C1934.09 10.5 1924.92 21.8333 1917.59 44.5C1910.26 66.8333 1903.26 99.8333 1896.59 143.5L1862.59 373.5C1857.92 405.5 1852.09 430.667 1845.09 449C1838.42 467.667 1829.92 480.833 1819.59 488.5C1809.59 496.5 1796.92 500.5 1781.59 500.5ZM1927.09 193.5C1926.76 193.5 1923.26 193 1916.59 192C1909.92 191 1901.92 190 1892.59 189C1883.59 188 1875.09 187.5 1867.09 187.5L1868.09 174C1875.76 174 1884.59 173.667 1894.59 173C1904.59 172.333 1913.76 171.667 1922.09 171C1930.76 170.333 1936.59 170 1939.59 170C1941.26 170 1942.26 170.667 1942.59 172C1943.26 173.333 1943.42 174.667 1943.09 176C1942.42 178.667 1940.42 182.333 1937.09 187C1933.76 191.333 1930.42 193.5 1927.09 193.5Z" fill="#EB0032"/>
<path d="M2006.02 370C1987.69 370 1973.02 365.167 1962.02 355.5C1951.35 345.833 1944.35 333.167 1941.02 317.5C1937.69 301.833 1937.69 284.833 1941.02 266.5C1945.02 246.167 1952.35 228.333 1963.02 213C1973.69 197.333 1986.69 185.167 2002.02 176.5C2017.35 167.833 2033.85 163.5 2051.52 163.5C2070.19 163.5 2085.02 168.167 2096.02 177.5C2107.02 186.5 2114.35 198.833 2118.02 214.5C2121.69 229.833 2121.52 247.167 2117.52 266.5C2113.19 289.167 2105.02 308.333 2093.02 324C2081.35 339.333 2067.85 350.833 2052.52 358.5C2037.19 366.167 2021.69 370 2006.02 370ZM2023.02 357.5C2033.69 357.5 2042.85 351.333 2050.52 339C2058.52 326.333 2064.35 309.5 2068.02 288.5C2070.69 273.5 2071.85 259.333 2071.52 246C2071.52 232.333 2070.02 220.167 2067.02 209.5C2064.02 198.833 2059.85 190.5 2054.52 184.5C2049.19 178.5 2042.69 175.5 2035.02 175.5C2025.69 175.5 2017.02 181.167 2009.02 192.5C2001.02 203.833 1994.85 221.333 1990.52 245C1987.85 260 1986.69 274.333 1987.02 288C1987.35 301.667 1988.85 313.667 1991.52 324C1994.52 334.333 1998.69 342.5 2004.02 348.5C2009.35 354.5 2015.69 357.5 2023.02 357.5Z" fill="#EB0032"/>
<path d="M2197.62 357L2192.62 356.5C2195.96 338.833 2199.79 321 2204.12 303C2208.46 284.667 2213.12 267.333 2218.12 251C2223.46 234.667 2229.29 220.167 2235.62 207.5C2241.96 194.5 2248.79 184.333 2256.12 177C2263.46 169.333 2271.29 165.5 2279.62 165.5C2284.96 165.5 2290.46 167 2296.12 170C2301.79 172.667 2306.46 176.333 2310.12 181C2313.79 185.667 2315.12 190.833 2314.12 196.5C2313.79 200.833 2311.62 205.333 2307.62 210C2303.62 214.667 2298.46 217 2292.12 217C2287.12 217 2282.79 215.833 2279.12 213.5C2275.46 210.833 2271.96 208.333 2268.62 206C2265.62 203.333 2262.29 202 2258.62 202C2254.96 202 2250.79 205.667 2246.12 213C2241.46 220 2236.62 229.333 2231.62 241C2226.96 252.667 2222.29 265.5 2217.62 279.5C2213.29 293.167 2209.29 306.833 2205.62 320.5C2202.29 334.167 2199.62 346.333 2197.62 357ZM2169.62 367C2163.29 367 2158.96 366.5 2156.62 365.5C2154.29 364.833 2153.12 364 2153.12 363C2153.12 361.667 2154.12 357.333 2156.12 350C2158.12 342.667 2159.79 334.667 2161.12 326L2181.62 214.5C2182.62 208.833 2182.96 204.333 2182.62 201C2182.29 197.333 2181.29 194.667 2179.62 193C2178.29 191 2176.29 190 2173.62 190C2170.62 190 2166.62 191.667 2161.62 195C2156.96 198.333 2151.46 203.333 2145.12 210C2143.79 211.333 2142.46 211.333 2141.12 210C2139.79 208.333 2139.79 206.833 2141.12 205.5C2153.12 191.167 2163.96 181 2173.62 175C2183.29 168.667 2192.79 165.5 2202.12 165.5C2209.46 165.5 2214.96 167.167 2218.62 170.5C2222.29 173.833 2224.46 178.667 2225.12 185C2226.12 191.333 2225.79 199.167 2224.12 208.5L2197.62 357C2196.62 363.667 2187.29 367 2169.62 367Z" fill="#EB0032"/>
<path d="M2629.03 369C2591.7 369 2559.7 362 2533.03 348C2506.37 333.667 2486.03 314.5 2472.03 290.5C2458.03 266.5 2451.03 239.833 2451.03 210.5C2451.03 185.833 2455.7 163.5 2465.03 143.5C2474.7 123.167 2488.03 105.667 2505.03 91C2522.37 76.3333 2542.53 65 2565.53 57C2588.87 49 2614.2 45 2641.53 45C2657.2 45 2672.53 46.5 2687.53 49.5C2702.53 52.5 2714.87 57 2724.53 63C2727.53 65 2729.2 66.6667 2729.53 68C2729.87 69.3333 2730.2 71.5 2730.53 74.5L2736.53 130.5C2736.53 131.167 2735.53 131.833 2733.53 132.5C2731.87 132.833 2730.87 132.333 2730.53 131C2723.2 106.667 2710.03 88.1667 2691.03 75.5C2672.03 62.5 2648.37 56 2620.03 56C2577.7 56 2545.03 68.3333 2522.03 93C2499.37 117.333 2488.03 150.5 2488.03 192.5C2488.03 225.5 2494.7 254.667 2508.03 280C2521.37 305 2539.53 324.667 2562.53 339C2585.53 353.333 2611.7 360.5 2641.03 360.5C2657.37 360.5 2670.37 359 2680.03 356C2689.7 353 2696.7 347.167 2701.03 338.5C2705.37 329.833 2707.53 317 2707.53 300C2707.53 284 2706.53 272.333 2704.53 265C2702.53 257.333 2697.53 252.333 2689.53 250C2681.53 247.667 2668.7 246.5 2651.03 246.5C2649.03 246.5 2648.03 245.167 2648.03 242.5C2648.03 239.833 2648.87 238.5 2650.53 238.5C2671.53 239.833 2690.7 240.667 2708.03 241C2725.37 241 2743.53 240.5 2762.53 239.5C2764.2 239.5 2765.03 240.667 2765.03 243C2765.03 245.333 2764.2 246.5 2762.53 246.5C2754.87 246.167 2749.2 247.333 2745.53 250C2742.2 252.333 2740.03 257.667 2739.03 266C2738.03 274.333 2737.53 287.333 2737.53 305C2737.53 316 2737.87 324.167 2738.53 329.5C2739.2 334.833 2739.7 338.833 2740.03 341.5C2740.7 343.833 2741.03 346.333 2741.03 349C2741.03 351 2740.7 352.333 2740.03 353C2739.37 353.667 2737.87 354.333 2735.53 355C2718.53 359 2700.7 362.333 2682.03 365C2663.7 367.667 2646.03 369 2629.03 369Z" fill="white"/>
<path d="M2898.97 369.5C2879.3 369.5 2862.13 364.667 2847.47 355C2832.8 345.333 2821.47 332.5 2813.47 316.5C2805.47 300.167 2801.47 282.667 2801.47 264C2801.47 246.667 2804.63 231.667 2810.97 219C2817.3 206.333 2825.8 196 2836.47 188C2847.13 179.667 2858.63 173.5 2870.97 169.5C2883.63 165.5 2895.97 163.5 2907.97 163.5C2928.3 163.5 2945.63 168.5 2959.97 178.5C2974.63 188.5 2985.8 201.333 2993.47 217C3001.13 232.667 3004.97 249.167 3004.97 266.5C3004.97 287.833 3000.13 306.167 2990.47 321.5C2980.8 336.833 2967.97 348.667 2951.97 357C2935.97 365.333 2918.3 369.5 2898.97 369.5ZM2913.47 360C2931.13 360 2945.13 353.833 2955.47 341.5C2965.8 328.833 2970.97 308.5 2970.97 280.5C2970.97 259.5 2967.47 241 2960.47 225C2953.8 208.667 2944.47 196 2932.47 187C2920.47 177.667 2906.8 173 2891.47 173C2873.8 173 2859.97 179.5 2849.97 192.5C2839.97 205.5 2834.97 224.167 2834.97 248.5C2834.97 268.833 2838.3 287.5 2844.97 304.5C2851.63 321.5 2860.8 335 2872.47 345C2884.47 355 2898.13 360 2913.47 360Z" fill="white"/>
<path d="M3238.22 170C3238.89 170 3239.22 171 3239.22 173C3239.22 175 3238.89 176 3238.22 176C3229.89 176 3222.72 178.667 3216.72 184C3211.06 189 3205.39 198.5 3199.72 212.5L3137.22 362.5C3136.89 363.833 3135.06 364.5 3131.72 364.5C3128.72 364.5 3126.89 363.833 3126.22 362.5L3056.22 211.5C3049.22 196.5 3043.39 186.833 3038.72 182.5C3034.39 178.167 3029.06 176 3022.72 176C3021.72 176 3021.22 175 3021.22 173C3021.22 171 3021.72 170 3022.72 170C3027.72 170 3033.06 170.167 3038.72 170.5C3044.72 170.833 3050.89 171 3057.22 171C3068.56 171 3078.39 170.833 3086.72 170.5C3095.06 170.167 3102.72 170 3109.72 170C3110.72 170 3111.22 171 3111.22 173C3111.22 175 3110.72 176 3109.72 176C3099.39 176 3091.22 177.333 3085.22 180C3079.22 182.333 3078.06 187.5 3081.72 195.5L3145.72 331.5L3131.22 352L3189.72 210C3194.72 198 3194.22 189.333 3188.22 184C3182.56 178.667 3171.06 176 3153.72 176C3153.06 176 3152.72 175 3152.72 173C3152.72 171 3153.06 170 3153.72 170C3161.72 170 3169.22 170.167 3176.22 170.5C3183.56 170.833 3192.89 171 3204.22 171C3211.22 171 3216.89 170.833 3221.22 170.5C3225.89 170.167 3231.56 170 3238.22 170Z" fill="white"/>
<path d="M3351.52 369C3330.85 369 3313.52 364.5 3299.52 355.5C3285.52 346.167 3275.02 334.167 3268.02 319.5C3261.02 304.833 3257.52 289.333 3257.52 273C3257.52 252.667 3262.19 234.5 3271.52 218.5C3281.19 202.167 3294.02 189.333 3310.02 180C3326.35 170.333 3344.69 165.5 3365.02 165.5C3383.35 165.5 3397.35 170 3407.02 179C3417.02 187.667 3422.02 199.667 3422.02 215C3422.02 218.667 3421.69 221.5 3421.02 223.5C3420.35 225.5 3418.69 226.5 3416.02 226.5H3387.02C3388.35 210.167 3385.35 197.667 3378.02 189C3371.02 180 3361.02 175.5 3348.02 175.5C3329.35 175.5 3315.02 182.5 3305.02 196.5C3295.35 210.5 3290.52 229.5 3290.52 253.5C3290.52 272.5 3293.52 289.333 3299.52 304C3305.85 318.667 3314.85 330.333 3326.52 339C3338.52 347.333 3352.69 351.5 3369.02 351.5C3377.69 351.5 3386.52 350.167 3395.52 347.5C3404.52 344.833 3413.02 340.667 3421.02 335C3421.69 334.333 3422.52 334.833 3423.52 336.5C3424.85 337.833 3425.19 339 3424.52 340C3412.52 350.333 3400.52 357.833 3388.52 362.5C3376.52 366.833 3364.19 369 3351.52 369ZM3281.52 227.5L3281.02 221L3395.02 218.5V226.5L3281.52 227.5Z" fill="white"/>
<path d="M3515.12 227.5L3513.12 222C3525.46 207 3535.62 195.5 3543.62 187.5C3551.62 179.167 3558.46 173.5 3564.12 170.5C3570.12 167.167 3575.79 165.5 3581.12 165.5C3588.12 165.5 3594.96 167.5 3601.62 171.5C3608.62 175.5 3612.12 180.333 3612.12 186C3612.12 190.333 3610.62 194 3607.62 197C3604.96 200 3600.96 201.5 3595.62 201.5C3591.29 201.5 3587.62 200.167 3584.62 197.5C3581.62 194.833 3578.46 192.333 3575.12 190C3571.79 187.667 3567.46 186.5 3562.12 186.5C3559.12 186.5 3555.96 187.333 3552.62 189C3549.29 190.667 3544.79 194.5 3539.12 200.5C3533.46 206.167 3525.46 215.167 3515.12 227.5ZM3466.12 363C3465.12 363 3464.62 362 3464.62 360C3464.62 358 3465.12 357 3466.12 357C3479.12 357 3487.46 354.833 3491.12 350.5C3495.12 345.833 3497.12 336.5 3497.12 322.5V223.5C3497.12 212.5 3495.79 204.5 3493.12 199.5C3490.79 194.167 3486.29 191.5 3479.62 191.5C3476.29 191.5 3472.29 192.167 3467.62 193.5C3463.29 194.833 3458.29 196.667 3452.62 199C3451.29 199.333 3450.12 198.667 3449.12 197C3448.46 195.333 3448.79 194.167 3450.12 193.5L3508.12 166C3509.12 165.667 3510.12 165.5 3511.12 165.5C3513.46 165.5 3516.46 169 3520.12 176C3523.79 183 3525.62 193.167 3525.62 206.5V322.5C3525.62 331.833 3526.79 339.167 3529.12 344.5C3531.46 349.5 3536.12 352.833 3543.12 354.5C3550.12 356.167 3560.46 357 3574.12 357C3575.46 357 3576.12 358 3576.12 360C3576.12 362 3575.46 363 3574.12 363C3566.12 363 3556.62 362.833 3545.62 362.5C3534.96 362.167 3523.62 362 3511.62 362C3502.96 362 3494.62 362.167 3486.62 362.5C3478.62 362.833 3471.79 363 3466.12 363Z" fill="white"/>
<path d="M3782.75 363C3781.75 363 3781.25 362 3781.25 360C3781.25 358 3781.75 357 3782.75 357C3795.75 357 3804.08 354.833 3807.75 350.5C3811.75 345.833 3813.75 336.5 3813.75 322.5V241.5C3813.75 221.5 3810.08 207 3802.75 198C3795.42 188.667 3783.75 184 3767.75 184C3755.75 184 3743.42 187.833 3730.75 195.5C3718.08 203.167 3707.25 213.667 3698.25 227L3696.25 221C3710.92 201.333 3725.42 186.833 3739.75 177.5C3754.42 168.167 3769.25 163.5 3784.25 163.5C3802.58 163.5 3816.75 168.667 3826.75 179C3837.08 189 3842.25 204.167 3842.25 224.5V322.5C3842.25 336.5 3844.08 345.833 3847.75 350.5C3851.75 354.833 3860.25 357 3873.25 357C3874.25 357 3874.75 358 3874.75 360C3874.75 362 3874.25 363 3873.25 363C3867.58 363 3860.75 362.833 3852.75 362.5C3845.08 362.167 3836.92 362 3828.25 362C3819.58 362 3811.25 362.167 3803.25 362.5C3795.25 362.833 3788.42 363 3782.75 363ZM3648.25 363C3647.25 363 3646.75 362 3646.75 360C3646.75 358 3647.25 357 3648.25 357C3661.25 357 3669.58 354.833 3673.25 350.5C3677.25 345.833 3679.25 336.5 3679.25 322.5V223.5C3679.25 212.5 3677.92 204.5 3675.25 199.5C3672.92 194.167 3668.42 191.5 3661.75 191.5C3658.42 191.5 3654.42 192.167 3649.75 193.5C3645.42 194.833 3640.42 196.667 3634.75 199C3633.42 199.333 3632.25 198.667 3631.25 197C3630.58 195.333 3630.92 194.167 3632.25 193.5L3690.25 166C3691.25 165.667 3692.25 165.5 3693.25 165.5C3695.58 165.5 3698.58 169 3702.25 176C3705.92 183 3707.75 193.167 3707.75 206.5V322.5C3707.75 336.5 3709.58 345.833 3713.25 350.5C3717.25 354.833 3725.75 357 3738.75 357C3739.75 357 3740.25 358 3740.25 360C3740.25 362 3739.75 363 3738.75 363C3733.08 363 3726.25 362.833 3718.25 362.5C3710.58 362.167 3702.42 362 3693.75 362C3685.08 362 3676.75 362.167 3668.75 362.5C3660.75 362.833 3653.92 363 3648.25 363Z" fill="white"/>
<path d="M4164.05 363C4163.05 363 4162.55 362 4162.55 360C4162.55 358 4163.05 357 4164.05 357C4177.05 357 4185.55 354.833 4189.55 350.5C4193.55 345.833 4195.55 336.5 4195.55 322.5V243C4195.55 204 4181.22 184.5 4152.55 184.5C4140.55 184.5 4128.55 188.5 4116.55 196.5C4104.89 204.167 4094.55 214.667 4085.55 228L4083.55 222C4097.89 202 4112.05 187.5 4126.05 178.5C4140.05 169.5 4154.39 165 4169.05 165C4186.39 165 4199.72 170 4209.05 180C4218.72 189.667 4223.55 204.833 4223.55 225.5V322.5C4223.55 336.5 4225.39 345.833 4229.05 350.5C4233.05 354.833 4241.72 357 4255.05 357C4256.05 357 4256.55 358 4256.55 360C4256.55 362 4256.05 363 4255.05 363C4249.39 363 4242.55 362.833 4234.55 362.5C4226.55 362.167 4218.22 362 4209.55 362C4200.89 362 4192.55 362.167 4184.55 362.5C4176.89 362.833 4170.05 363 4164.05 363ZM4035.05 363C4034.05 363 4033.55 362 4033.55 360C4033.55 358 4034.05 357 4035.05 357C4048.05 357 4056.39 354.833 4060.05 350.5C4064.05 345.833 4066.05 336.5 4066.05 322.5V243C4066.05 204 4051.89 184.5 4023.55 184.5C4011.55 184.5 3999.55 188.5 3987.55 196.5C3975.89 204.167 3965.55 214.667 3956.55 228L3954.55 222C3968.55 202 3982.55 187.5 3996.55 178.5C4010.55 169.5 4024.89 165 4039.55 165C4056.89 165 4070.39 169.833 4080.05 179.5C4089.72 189.167 4094.55 204.167 4094.55 224.5V322.5C4094.55 336.5 4096.39 345.833 4100.05 350.5C4104.05 354.833 4112.72 357 4126.05 357C4127.05 357 4127.55 358 4127.55 360C4127.55 362 4127.05 363 4126.05 363C4120.05 363 4113.05 362.833 4105.05 362.5C4097.39 362.167 4089.22 362 4080.55 362C4071.89 362 4063.55 362.167 4055.55 362.5C4047.55 362.833 4040.72 363 4035.05 363ZM3906.55 363C3905.55 363 3905.05 362 3905.05 360C3905.05 358 3905.55 357 3906.55 357C3919.55 357 3927.89 354.833 3931.55 350.5C3935.55 345.833 3937.55 336.5 3937.55 322.5V223.5C3937.55 212.5 3936.22 204.5 3933.55 199.5C3931.22 194.167 3926.72 191.5 3920.05 191.5C3916.72 191.5 3912.72 192.167 3908.05 193.5C3903.72 194.833 3898.72 196.667 3893.05 199C3891.72 199.333 3890.55 198.667 3889.55 197C3888.89 195.333 3889.22 194.167 3890.55 193.5L3948.55 166C3949.55 165.667 3950.55 165.5 3951.55 165.5C3953.89 165.5 3956.89 169 3960.55 176C3964.22 183 3966.05 193.167 3966.05 206.5V322.5C3966.05 336.5 3967.89 345.833 3971.55 350.5C3975.55 354.833 3984.05 357 3997.05 357C3998.05 357 3998.55 358 3998.55 360C3998.55 362 3998.05 363 3997.05 363C3991.39 363 3984.55 362.833 3976.55 362.5C3968.89 362.167 3960.72 362 3952.05 362C3943.39 362 3935.05 362.167 3927.05 362.5C3919.05 362.833 3912.22 363 3906.55 363Z" fill="white"/>
<path d="M4377.4 369C4356.73 369 4339.4 364.5 4325.4 355.5C4311.4 346.167 4300.9 334.167 4293.9 319.5C4286.9 304.833 4283.4 289.333 4283.4 273C4283.4 252.667 4288.07 234.5 4297.4 218.5C4307.07 202.167 4319.9 189.333 4335.9 180C4352.23 170.333 4370.57 165.5 4390.9 165.5C4409.23 165.5 4423.23 170 4432.9 179C4442.9 187.667 4447.9 199.667 4447.9 215C4447.9 218.667 4447.57 221.5 4446.9 223.5C4446.23 225.5 4444.57 226.5 4441.9 226.5H4412.9C4414.23 210.167 4411.23 197.667 4403.9 189C4396.9 180 4386.9 175.5 4373.9 175.5C4355.23 175.5 4340.9 182.5 4330.9 196.5C4321.23 210.5 4316.4 229.5 4316.4 253.5C4316.4 272.5 4319.4 289.333 4325.4 304C4331.73 318.667 4340.73 330.333 4352.4 339C4364.4 347.333 4378.57 351.5 4394.9 351.5C4403.57 351.5 4412.4 350.167 4421.4 347.5C4430.4 344.833 4438.9 340.667 4446.9 335C4447.57 334.333 4448.4 334.833 4449.4 336.5C4450.73 337.833 4451.07 339 4450.4 340C4438.4 350.333 4426.4 357.833 4414.4 362.5C4402.4 366.833 4390.07 369 4377.4 369ZM4307.4 227.5L4306.9 221L4420.9 218.5V226.5L4307.4 227.5Z" fill="white"/>
<path d="M4626.5 363C4625.5 363 4625 362 4625 360C4625 358 4625.5 357 4626.5 357C4639.5 357 4647.83 354.833 4651.5 350.5C4655.5 345.833 4657.5 336.5 4657.5 322.5V241.5C4657.5 221.5 4653.83 207 4646.5 198C4639.17 188.667 4627.5 184 4611.5 184C4599.5 184 4587.17 187.833 4574.5 195.5C4561.83 203.167 4551 213.667 4542 227L4540 221C4554.67 201.333 4569.17 186.833 4583.5 177.5C4598.17 168.167 4613 163.5 4628 163.5C4646.33 163.5 4660.5 168.667 4670.5 179C4680.83 189 4686 204.167 4686 224.5V322.5C4686 336.5 4687.83 345.833 4691.5 350.5C4695.5 354.833 4704 357 4717 357C4718 357 4718.5 358 4718.5 360C4718.5 362 4718 363 4717 363C4711.33 363 4704.5 362.833 4696.5 362.5C4688.83 362.167 4680.67 362 4672 362C4663.33 362 4655 362.167 4647 362.5C4639 362.833 4632.17 363 4626.5 363ZM4492 363C4491 363 4490.5 362 4490.5 360C4490.5 358 4491 357 4492 357C4505 357 4513.33 354.833 4517 350.5C4521 345.833 4523 336.5 4523 322.5V223.5C4523 212.5 4521.67 204.5 4519 199.5C4516.67 194.167 4512.17 191.5 4505.5 191.5C4502.17 191.5 4498.17 192.167 4493.5 193.5C4489.17 194.833 4484.17 196.667 4478.5 199C4477.17 199.333 4476 198.667 4475 197C4474.33 195.333 4474.67 194.167 4476 193.5L4534 166C4535 165.667 4536 165.5 4537 165.5C4539.33 165.5 4542.33 169 4546 176C4549.67 183 4551.5 193.167 4551.5 206.5V322.5C4551.5 336.5 4553.33 345.833 4557 350.5C4561 354.833 4569.5 357 4582.5 357C4583.5 357 4584 358 4584 360C4584 362 4583.5 363 4582.5 363C4576.83 363 4570 362.833 4562 362.5C4554.33 362.167 4546.17 362 4537.5 362C4528.83 362 4520.5 362.167 4512.5 362.5C4504.5 362.833 4497.67 363 4492 363Z" fill="white"/>
<path d="M4821.8 369C4813.8 369 4806.14 367.667 4798.8 365C4791.47 362.667 4785.47 358.5 4780.8 352.5C4776.14 346.5 4773.8 338.333 4773.8 328V210.5C4773.8 202.5 4773.3 196.5 4772.3 192.5C4771.3 188.5 4768.97 186 4765.3 185C4761.64 183.667 4755.97 183 4748.3 183C4746.97 183 4746.3 182 4746.3 180C4746.3 177.667 4746.97 176.5 4748.3 176.5C4761.64 176.167 4772.47 172.5 4780.8 165.5C4789.47 158.5 4794.3 149.5 4795.3 138.5C4795.3 137.5 4796.47 137 4798.8 137C4801.47 137 4802.8 137.5 4802.8 138.5V311C4802.8 324.667 4806.14 334.833 4812.8 341.5C4819.8 348.167 4829.64 351.5 4842.3 351.5C4850.97 351.5 4858.64 350.167 4865.3 347.5C4872.3 344.5 4877.97 341.167 4882.3 337.5C4883.64 336.833 4884.8 337.333 4885.8 339C4887.14 340.333 4887.14 341.5 4885.8 342.5C4873.47 351.833 4862.3 358.667 4852.3 363C4842.64 367 4832.47 369 4821.8 369ZM4870.3 194.5C4857.3 191.167 4844.8 189 4832.8 188C4820.8 187 4807.97 186.5 4794.3 186.5V175.5C4807.64 175.5 4820.47 175 4832.8 174C4845.14 173 4858.3 171.833 4872.3 170.5C4872.97 170.5 4873.64 171.667 4874.3 174C4875.3 176.333 4875.8 179.167 4875.8 182.5C4875.8 184.833 4875.14 187.5 4873.8 190.5C4872.8 193.5 4871.64 194.833 4870.3 194.5Z" fill="white"/>
</svg>
