<svg width="3134" height="501" viewBox="0 0 3134 501" fill="none" xmlns="http://www.w3.org/2000/svg">
<path d="M40.7778 369C32.7778 369 25.2778 367.667 18.2778 365C11.2778 362.333 6.11111 357.167 2.77778 349.5C-0.555555 341.833 -0.888889 330.667 1.77778 316L21.2778 210C23.2778 199 23.2778 191.833 21.2778 188.5C19.2778 185.167 13.6111 183.5 4.27778 183.5C2.94445 183.5 2.27778 182.167 2.27778 179.5C2.61111 176.833 3.27778 175.5 4.27778 175.5C20.2778 175.5 33.2778 171 43.2778 162C53.6111 153 61.7778 142.833 67.7778 131.5C68.4444 130.167 70.2778 129.833 73.2778 130.5C76.2778 130.833 77.6111 131.667 77.2778 133L46.2778 307.5C44.2778 319.167 45.2778 327.833 49.2778 333.5C53.2778 338.833 60.4444 341.5 70.7778 341.5C77.4444 341.5 84.1111 340 90.7778 337C97.7778 334 105.111 329.333 112.778 323C113.444 322.333 114.444 322.667 115.778 324C117.444 325.333 117.778 326.5 116.778 327.5C101.444 342.167 87.7778 352.833 75.7778 359.5C64.1111 365.833 52.4444 369 40.7778 369ZM116.778 194.5C116.444 194.5 113.111 194 106.778 193C100.778 192 93.2778 191 84.2778 190C75.6111 189 66.6111 188.5 57.2778 188.5L58.2778 174C69.6111 174 79.9444 173.667 89.2778 173C98.6111 172.333 106.778 171.667 113.778 171C120.778 170.333 126.111 170 129.778 170C131.444 170 132.444 170.667 132.778 172C133.444 173.333 133.611 174.667 133.278 176C132.944 178.667 130.944 182.5 127.278 187.5C123.944 192.167 120.444 194.5 116.778 194.5Z" fill="white"/>
<path d="M158.168 367C151.835 367 147.502 366.5 145.168 365.5C142.835 364.833 141.668 364 141.668 363C141.668 361.667 142.502 357.333 144.168 350C146.168 342.667 147.835 334.667 149.168 326L196.168 68.5C198.835 52.5 198.002 42.8333 193.668 39.5C189.668 36.1667 180.835 37.8333 167.168 44.5C165.835 44.8333 164.835 44 164.168 42C163.502 40 163.835 38.8333 165.168 38.5L242.668 0.499994C244.335 -0.166684 245.835 0.166645 247.168 1.49998C248.502 2.83332 249.002 3.83332 248.668 4.5L186.168 357C184.502 363.667 175.168 367 158.168 367ZM287.668 367.5C276.668 367.5 269.502 363.333 266.168 355C263.168 346.667 263.168 334.5 266.168 318.5L280.668 239C283.668 223 283.835 211.167 281.168 203.5C278.835 195.833 274.168 192 267.168 192C257.835 192 248.002 198.333 237.668 211C227.335 223.667 217.668 242.333 208.668 267C199.668 291.333 192.168 321.333 186.168 357L177.168 356.5C183.835 316.833 192.835 282.667 204.168 254C215.835 225 229.168 202.667 244.168 187C259.502 171.333 275.668 163.5 292.668 163.5C306.668 163.5 316.502 168.833 322.168 179.5C327.835 190.167 328.668 206.833 324.668 229.5L308.168 318.5C306.502 327.833 306.335 334.167 307.668 337.5C309.335 340.5 311.668 342 314.668 342C318.335 342 322.335 340.333 326.668 337C331.002 333.667 335.835 329.5 341.168 324.5C342.168 323.167 343.335 323.167 344.668 324.5C346.335 325.833 346.502 327.167 345.168 328.5C334.835 340.833 325.168 350.5 316.168 357.5C307.168 364.167 297.668 367.5 287.668 367.5Z" fill="white"/>
<path d="M438.637 369C419.304 369 404.137 364.167 393.137 354.5C382.47 344.833 375.47 332.5 372.137 317.5C369.137 302.5 369.137 286.833 372.137 270.5C374.804 257.5 379.637 244.667 386.637 232C393.637 219 402.47 207.5 413.137 197.5C423.804 187.167 435.97 179 449.637 173C463.304 166.667 477.97 163.5 493.637 163.5C507.304 163.5 517.47 165.833 524.137 170.5C531.137 175.167 534.304 181.833 533.637 190.5C532.637 199.167 528.137 207.5 520.137 215.5C512.137 223.5 501.47 230.667 488.137 237C475.137 243.333 460.47 248.833 444.137 253.5C428.137 257.833 411.804 260.833 395.137 262.5L396.137 256C419.804 252.333 439.637 246.333 455.637 238C471.637 229.333 480.804 217 483.137 201C484.47 193.667 483.637 187.833 480.637 183.5C477.97 179.167 473.637 177 467.637 177C459.97 177 452.97 180.5 446.637 187.5C440.637 194.167 435.304 203.333 430.637 215C426.304 226.667 422.97 239.667 420.637 254C417.97 271 417.804 286.5 420.137 300.5C422.47 314.5 427.637 325.833 435.637 334.5C443.637 342.833 454.47 347 468.137 347C474.47 347 481.637 345.833 489.637 343.5C497.971 341.167 505.804 337.167 513.137 331.5C513.804 330.833 514.637 331.167 515.637 332.5C516.97 333.833 517.304 334.833 516.637 335.5C503.97 347.833 490.804 356.5 477.137 361.5C463.804 366.5 450.97 369 438.637 369Z" fill="white"/>
<path d="M542.629 281C541.629 281 540.796 279 540.129 275C539.463 270.667 539.129 266.333 539.129 262C539.129 257.667 539.463 255.5 540.129 255.5L664.629 232C665.629 231.667 666.463 233.667 667.129 238C667.796 242.333 668.129 246.667 668.129 251C668.129 255 667.629 257.167 666.629 257.5L542.629 281Z" fill="white"/>
<path d="M757.973 369.5C742.973 369.5 730.64 366.333 720.973 360C711.64 353.667 704.473 345.333 699.473 335C694.473 324.667 691.473 313.167 690.473 300.5C689.473 287.833 690.14 275 692.473 262C696.14 242 703.806 224.667 715.473 210C727.473 195.333 741.473 184 757.473 176C773.473 167.667 789.14 163.5 804.473 163.5C812.14 163.5 819.64 164.667 826.973 167C834.306 169 840.306 172.5 844.973 177.5C849.973 182.5 852.14 189 851.473 197C851.14 203.667 848.64 209.167 843.973 213.5C839.64 217.5 833.64 219.5 825.973 219.5C816.973 219.5 810.806 217.167 807.473 212.5C804.14 207.5 801.973 202.333 800.973 197C799.64 192 797.806 187.5 795.473 183.5C793.14 179.5 788.806 177.5 782.473 177.5C775.806 177.5 769.473 180.333 763.473 186C757.806 191.667 752.973 199.5 748.973 209.5C744.973 219.5 741.806 231.167 739.473 244.5C736.473 262.833 735.973 279.667 737.973 295C740.306 310.333 745.473 322.5 753.473 331.5C761.806 340.5 773.473 345 788.473 345C795.473 345 803.14 343.5 811.473 340.5C820.14 337.167 827.14 333.5 832.473 329.5C833.14 328.833 834.14 329.167 835.473 330.5C836.806 331.833 837.14 333 836.473 334C824.14 346.333 810.973 355.333 796.973 361C783.306 366.667 770.306 369.5 757.973 369.5Z" fill="white"/>
<path d="M930.313 370C911.98 370 897.313 365.167 886.313 355.5C875.646 345.833 868.646 333.167 865.313 317.5C861.98 301.833 861.98 284.833 865.313 266.5C869.313 246.167 876.646 228.333 887.313 213C897.98 197.333 910.98 185.167 926.313 176.5C941.646 167.833 958.146 163.5 975.813 163.5C994.48 163.5 1009.31 168.167 1020.31 177.5C1031.31 186.5 1038.65 198.833 1042.31 214.5C1045.98 229.833 1045.81 247.167 1041.81 266.5C1037.48 289.167 1029.31 308.333 1017.31 324C1005.65 339.333 992.146 350.833 976.813 358.5C961.48 366.167 945.98 370 930.313 370ZM947.313 357.5C957.98 357.5 967.146 351.333 974.813 339C982.813 326.333 988.646 309.5 992.313 288.5C994.98 273.5 996.146 259.333 995.813 246C995.813 232.333 994.313 220.167 991.313 209.5C988.313 198.833 984.146 190.5 978.813 184.5C973.48 178.5 966.98 175.5 959.313 175.5C949.98 175.5 941.313 181.167 933.313 192.5C925.313 203.833 919.146 221.333 914.813 245C912.146 260 910.98 274.333 911.313 288C911.646 301.667 913.146 313.667 915.813 324C918.813 334.333 922.98 342.5 928.313 348.5C933.646 354.5 939.98 357.5 947.313 357.5Z" fill="white"/>
<path d="M1224.91 367.5C1213.91 367.5 1206.75 363.333 1203.41 355C1200.41 346.667 1200.41 334.5 1203.41 318.5L1217.91 239C1223.91 207.667 1219.41 192 1204.41 192C1195.08 192 1185.25 198.333 1174.91 211C1164.58 223.667 1154.91 242.333 1145.91 267C1136.91 291.333 1129.41 321.333 1123.41 357L1114.41 356.5C1121.08 316.833 1130.08 282.667 1141.41 254C1153.08 225 1166.41 202.667 1181.41 187C1196.75 171.333 1212.91 163.5 1229.91 163.5C1243.91 163.5 1253.75 168.833 1259.41 179.5C1265.08 190.167 1265.91 206.833 1261.91 229.5L1245.41 318.5C1243.75 327.833 1243.58 334.167 1244.91 337.5C1246.58 340.5 1248.91 342 1251.91 342C1255.58 342 1259.58 340.333 1263.91 337C1268.25 333.667 1273.08 329.5 1278.41 324.5C1279.41 323.167 1280.58 323.167 1281.91 324.5C1283.25 325.833 1283.41 327.167 1282.41 328.5C1272.08 340.833 1262.41 350.5 1253.41 357.5C1244.41 364.167 1234.91 367.5 1224.91 367.5ZM1095.41 367C1089.08 367 1084.75 366.5 1082.41 365.5C1080.08 364.833 1078.91 364 1078.91 363C1078.91 361.667 1079.75 357.333 1081.41 350C1083.41 342.667 1085.08 334.667 1086.41 326L1106.91 214.5C1109.91 198.167 1107.41 190 1099.41 190C1096.08 190 1091.91 191.667 1086.91 195C1082.25 198.333 1076.75 203.333 1070.41 210C1069.41 211.333 1068.25 211.333 1066.91 210C1065.58 208.333 1065.41 206.833 1066.41 205.5C1078.41 191.167 1089.25 181 1098.91 175C1108.58 168.667 1118.08 165.5 1127.41 165.5C1138.08 165.5 1145.08 169.333 1148.41 177C1151.75 184.333 1152.08 194.833 1149.41 208.5L1123.41 357C1121.75 363.667 1112.41 367 1095.41 367Z" fill="white"/>
<path d="M1275.22 500.5C1260.22 500.5 1248.72 497.667 1240.72 492C1232.72 486.333 1229.39 479.667 1230.72 472C1231.72 465.333 1234.55 460.333 1239.22 457C1243.55 453.667 1248.39 452 1253.72 452C1261.72 452 1267.22 453.833 1270.22 457.5C1272.89 461.5 1274.55 466 1275.22 471C1275.89 476.333 1276.89 480.833 1278.22 484.5C1279.22 488.5 1281.89 490.5 1286.22 490.5C1289.55 490.5 1292.39 487.833 1294.72 482.5C1297.05 477.5 1299.39 467.5 1301.72 452.5C1304.39 437.5 1307.89 415.5 1312.22 386.5L1337.72 210C1339.05 201.667 1339.22 195.667 1338.22 192C1337.55 188.333 1335.22 186 1331.22 185C1327.55 184 1321.55 183.5 1313.22 183.5C1311.89 183.5 1311.22 182.167 1311.22 179.5C1311.55 176.833 1312.22 175.5 1313.22 175.5C1323.89 175.5 1331.55 174 1336.22 171C1341.22 168 1344.39 162.333 1345.72 154C1350.72 127.667 1357.05 104.833 1364.72 85.5C1372.39 66.1667 1381.39 50.1667 1391.72 37.5C1402.05 24.8333 1413.89 15.5 1427.22 9.5C1440.89 3.16667 1455.89 0 1472.22 0C1489.89 0 1503.72 3.33333 1513.72 9.99999C1523.72 16.6667 1528.05 24.8333 1526.72 34.5C1525.72 41.1667 1522.89 46.3333 1518.22 50C1513.55 53.6667 1508.22 55.5 1502.22 55.5C1493.89 55.5 1487.72 53.3333 1483.72 49C1479.72 44.3333 1476.55 39 1474.22 33C1472.22 27 1469.89 21.8333 1467.22 17.5C1464.55 12.8333 1460.05 10.5 1453.72 10.5C1440.05 10.5 1427.72 21.6667 1416.72 44C1405.72 66 1396.89 99.1667 1390.22 143.5L1356.22 373.5C1351.55 405.5 1345.72 430.667 1338.72 449C1332.05 467.667 1323.55 480.833 1313.22 488.5C1303.22 496.5 1290.55 500.5 1275.22 500.5ZM1463.72 367.5C1452.39 367.5 1445.22 363.333 1442.22 355C1439.22 346.667 1439.05 334.5 1441.72 318.5L1460.72 216C1462.05 209 1461.89 203.5 1460.22 199.5C1458.89 195.167 1454.89 192 1448.22 190C1441.89 187.667 1431.89 186.167 1418.22 185.5C1404.55 184.833 1385.89 184.5 1362.22 184.5L1363.72 174C1390.05 174 1412.22 173.667 1430.22 173C1448.55 172.333 1463.55 171.667 1475.22 171C1487.22 170.333 1496.55 170 1503.22 170C1506.89 170 1508.89 170.833 1509.22 172.5C1509.89 174.167 1509.55 177.833 1508.22 183.5C1507.22 188.833 1505.72 197.167 1503.72 208.5L1483.72 318.5C1482.05 327.833 1482.05 334.167 1483.72 337.5C1485.39 340.5 1487.55 342 1490.22 342C1493.89 342 1497.89 340.333 1502.22 337C1506.55 333.667 1511.39 329.5 1516.72 324.5C1518.05 323.167 1519.39 323.167 1520.72 324.5C1522.05 325.833 1522.05 327.167 1520.72 328.5C1510.39 340.833 1500.72 350.5 1491.72 357.5C1482.72 364.167 1473.39 367.5 1463.72 367.5Z" fill="white"/>
<path d="M1587.44 369.5C1578.78 369.5 1570.61 367.333 1562.94 363C1555.28 358.333 1549.61 351 1545.94 341C1542.28 330.667 1541.94 317 1544.94 300C1548.28 282 1554.61 264.833 1563.94 248.5C1573.28 232.167 1584.44 217.667 1597.44 205C1610.44 192 1624.11 181.833 1638.44 174.5C1652.78 167.167 1666.78 163.5 1680.44 163.5C1691.44 163.5 1701.11 166.167 1709.44 171.5C1718.11 176.833 1722.78 185.333 1723.44 197L1698.44 240C1688.78 265 1677.94 287.333 1665.94 307C1654.28 326.333 1641.78 341.667 1628.44 353C1615.44 364 1601.78 369.5 1587.44 369.5ZM1612.44 334.5C1621.78 334.5 1630.61 331 1638.94 324C1647.61 316.667 1655.28 307.667 1661.94 297C1668.94 286 1674.78 274.833 1679.44 263.5C1684.11 251.833 1687.11 241.667 1688.44 233C1691.11 218 1688.44 206.833 1680.44 199.5C1672.78 191.833 1663.61 188 1652.94 188C1637.28 188 1623.78 195.5 1612.44 210.5C1601.44 225.167 1593.61 246 1588.94 273C1585.61 294.333 1586.11 310 1590.44 320C1594.78 329.667 1602.11 334.5 1612.44 334.5ZM1694.44 367.5C1683.11 367.5 1675.94 363.333 1672.94 355C1669.94 346.667 1669.78 334.5 1672.44 318.5L1718.44 68.5C1721.11 52.5 1720.28 42.8333 1715.94 39.5C1711.94 36.1667 1703.11 37.8333 1689.44 44.5C1688.11 44.8333 1687.11 44 1686.44 42C1685.78 40 1686.11 38.8333 1687.44 38.5L1764.94 0.499994C1766.61 -0.166684 1768.11 0.166645 1769.44 1.49998C1770.78 2.83332 1771.28 3.83332 1770.94 4.5L1714.94 318.5C1713.28 327.833 1713.11 334.167 1714.44 337.5C1716.11 340.5 1718.28 342 1720.94 342C1724.61 342 1728.61 340.333 1732.94 337C1737.28 333.667 1742.11 329.5 1747.44 324.5C1748.78 323.167 1750.11 323.167 1751.44 324.5C1752.78 325.833 1752.78 327.167 1751.44 328.5C1741.11 340.833 1731.44 350.5 1722.44 357.5C1713.44 364.167 1704.11 367.5 1694.44 367.5Z" fill="white"/>
<path d="M1838.54 369C1819.21 369 1804.04 364.167 1793.04 354.5C1782.37 344.833 1775.37 332.5 1772.04 317.5C1769.04 302.5 1769.04 286.833 1772.04 270.5C1774.71 257.5 1779.54 244.667 1786.54 232C1793.54 219 1802.37 207.5 1813.04 197.5C1823.71 187.167 1835.87 179 1849.54 173C1863.21 166.667 1877.87 163.5 1893.54 163.5C1907.21 163.5 1917.37 165.833 1924.04 170.5C1931.04 175.167 1934.21 181.833 1933.54 190.5C1932.54 199.167 1928.04 207.5 1920.04 215.5C1912.04 223.5 1901.37 230.667 1888.04 237C1875.04 243.333 1860.37 248.833 1844.04 253.5C1828.04 257.833 1811.71 260.833 1795.04 262.5L1796.04 256C1819.71 252.333 1839.54 246.333 1855.54 238C1871.54 229.333 1880.71 217 1883.04 201C1884.37 193.667 1883.54 187.833 1880.54 183.5C1877.87 179.167 1873.54 177 1867.54 177C1859.87 177 1852.87 180.5 1846.54 187.5C1840.54 194.167 1835.21 203.333 1830.54 215C1826.21 226.667 1822.87 239.667 1820.54 254C1817.87 271 1817.71 286.5 1820.04 300.5C1822.37 314.5 1827.54 325.833 1835.54 334.5C1843.54 342.833 1854.37 347 1868.04 347C1874.37 347 1881.54 345.833 1889.54 343.5C1897.87 341.167 1905.71 337.167 1913.04 331.5C1913.71 330.833 1914.54 331.167 1915.54 332.5C1916.87 333.833 1917.21 334.833 1916.54 335.5C1903.87 347.833 1890.71 356.5 1877.04 361.5C1863.71 366.5 1850.87 369 1838.54 369Z" fill="white"/>
<path d="M2106.75 367.5C2095.75 367.5 2088.58 363.333 2085.25 355C2082.25 346.667 2082.25 334.5 2085.25 318.5L2099.75 239C2105.75 207.667 2101.25 192 2086.25 192C2076.92 192 2067.08 198.333 2056.75 211C2046.42 223.667 2036.75 242.333 2027.75 267C2018.75 291.333 2011.25 321.333 2005.25 357L1996.25 356.5C2002.92 316.833 2011.92 282.667 2023.25 254C2034.92 225 2048.25 202.667 2063.25 187C2078.58 171.333 2094.75 163.5 2111.75 163.5C2125.75 163.5 2135.58 168.833 2141.25 179.5C2146.92 190.167 2147.75 206.833 2143.75 229.5L2127.25 318.5C2125.58 327.833 2125.42 334.167 2126.75 337.5C2128.42 340.5 2130.75 342 2133.75 342C2137.42 342 2141.42 340.333 2145.75 337C2150.08 333.667 2154.92 329.5 2160.25 324.5C2161.25 323.167 2162.42 323.167 2163.75 324.5C2165.08 325.833 2165.25 327.167 2164.25 328.5C2153.92 340.833 2144.25 350.5 2135.25 357.5C2126.25 364.167 2116.75 367.5 2106.75 367.5ZM1977.25 367C1970.92 367 1966.58 366.5 1964.25 365.5C1961.92 364.833 1960.75 364 1960.75 363C1960.75 361.667 1961.58 357.333 1963.25 350C1965.25 342.667 1966.92 334.667 1968.25 326L1988.75 214.5C1991.75 198.167 1989.25 190 1981.25 190C1977.92 190 1973.75 191.667 1968.75 195C1964.08 198.333 1958.58 203.333 1952.25 210C1951.25 211.333 1950.08 211.333 1948.75 210C1947.42 208.333 1947.25 206.833 1948.25 205.5C1960.25 191.167 1971.08 181 1980.75 175C1990.42 168.667 1999.92 165.5 2009.25 165.5C2019.92 165.5 2026.92 169.333 2030.25 177C2033.58 184.333 2033.92 194.833 2031.25 208.5L2005.25 357C2003.58 363.667 1994.25 367 1977.25 367Z" fill="white"/>
<path d="M2237.56 369C2229.56 369 2222.06 367.667 2215.06 365C2208.06 362.333 2202.89 357.167 2199.56 349.5C2196.22 341.833 2195.89 330.667 2198.56 316L2218.06 210C2220.39 199 2220.39 191.833 2218.06 188.5C2216.06 185.167 2210.39 183.5 2201.06 183.5C2199.72 183.5 2199.06 182.167 2199.06 179.5C2199.39 176.833 2200.06 175.5 2201.06 175.5C2217.06 175.5 2230.06 171 2240.06 162C2250.39 153 2258.56 142.833 2264.56 131.5C2265.22 130.167 2267.06 129.833 2270.06 130.5C2273.06 130.833 2274.39 131.667 2274.06 133L2243.06 307.5C2241.06 319.167 2242.06 327.833 2246.06 333.5C2250.06 338.833 2257.22 341.5 2267.56 341.5C2273.22 341.5 2279.22 340.5 2285.56 338.5C2291.89 336.5 2297.89 333.333 2303.56 329C2304.22 328.333 2305.22 328.667 2306.56 330C2308.22 331.333 2308.72 332.333 2308.06 333C2294.72 346 2282.22 355.333 2270.56 361C2259.22 366.333 2248.22 369 2237.56 369ZM2330.56 200.5C2321.56 197.833 2309.89 195.167 2295.56 192.5C2281.56 189.833 2267.72 188.5 2254.06 188.5L2255.06 174C2264.72 174 2275.56 173.833 2287.56 173.5C2299.56 172.833 2311.22 172.167 2322.56 171.5C2333.89 170.833 2343.06 170.333 2350.06 170C2351.72 170 2352.72 170.667 2353.06 172C2353.72 173.333 2353.89 174.667 2353.56 176C2352.89 178.333 2351.22 181.667 2348.56 186C2346.22 190 2343.39 193.5 2340.06 196.5C2337.06 199.5 2333.89 200.833 2330.56 200.5Z" fill="white"/>
<path d="M2358.57 367C2349.91 367 2342.91 364.5 2337.57 359.5C2332.57 354.5 2330.07 347.5 2330.07 338.5C2330.07 330.167 2332.57 323.667 2337.57 319C2342.91 314 2349.91 311.5 2358.57 311.5C2367.24 311.5 2373.91 314 2378.57 319C2383.57 323.667 2386.07 330.167 2386.07 338.5C2386.07 357.5 2376.91 367 2358.57 367Z" fill="#EB0032"/>
<path d="M2503.09 369.5C2488.09 369.5 2475.76 366.333 2466.09 360C2456.76 353.667 2449.59 345.333 2444.59 335C2439.59 324.667 2436.59 313.167 2435.59 300.5C2434.59 287.833 2435.26 275 2437.59 262C2441.26 242 2448.92 224.667 2460.59 210C2472.59 195.333 2486.59 184 2502.59 176C2518.59 167.667 2534.26 163.5 2549.59 163.5C2557.26 163.5 2564.76 164.667 2572.09 167C2579.42 169 2585.42 172.5 2590.09 177.5C2595.09 182.5 2597.26 189 2596.59 197C2596.26 203.667 2593.76 209.167 2589.09 213.5C2584.76 217.5 2578.76 219.5 2571.09 219.5C2562.09 219.5 2555.92 217.167 2552.59 212.5C2549.26 207.5 2547.09 202.333 2546.09 197C2544.76 192 2542.92 187.5 2540.59 183.5C2538.26 179.5 2533.92 177.5 2527.59 177.5C2520.92 177.5 2514.59 180.333 2508.59 186C2502.92 191.667 2498.09 199.5 2494.09 209.5C2490.09 219.5 2486.92 231.167 2484.59 244.5C2481.59 262.833 2481.09 279.667 2483.09 295C2485.42 310.333 2490.59 322.5 2498.59 331.5C2506.92 340.5 2518.59 345 2533.59 345C2540.59 345 2548.26 343.5 2556.59 340.5C2565.26 337.167 2572.26 333.5 2577.59 329.5C2578.26 328.833 2579.26 329.167 2580.59 330.5C2581.92 331.833 2582.26 333 2581.59 334C2569.26 346.333 2556.09 355.333 2542.09 361C2528.42 366.667 2515.42 369.5 2503.09 369.5Z" fill="white"/>
<path d="M2675.43 370C2657.1 370 2642.43 365.167 2631.43 355.5C2620.76 345.833 2613.76 333.167 2610.43 317.5C2607.1 301.833 2607.1 284.833 2610.43 266.5C2614.43 246.167 2621.76 228.333 2632.43 213C2643.1 197.333 2656.1 185.167 2671.43 176.5C2686.76 167.833 2703.26 163.5 2720.93 163.5C2739.6 163.5 2754.43 168.167 2765.43 177.5C2776.43 186.5 2783.76 198.833 2787.43 214.5C2791.1 229.833 2790.93 247.167 2786.93 266.5C2782.6 289.167 2774.43 308.333 2762.43 324C2750.76 339.333 2737.26 350.833 2721.93 358.5C2706.6 366.167 2691.1 370 2675.43 370ZM2692.43 357.5C2703.1 357.5 2712.26 351.333 2719.93 339C2727.93 326.333 2733.76 309.5 2737.43 288.5C2740.1 273.5 2741.26 259.333 2740.93 246C2740.93 232.333 2739.43 220.167 2736.43 209.5C2733.43 198.833 2729.26 190.5 2723.93 184.5C2718.6 178.5 2712.1 175.5 2704.43 175.5C2695.1 175.5 2686.43 181.167 2678.43 192.5C2670.43 203.833 2664.26 221.333 2659.93 245C2657.26 260 2656.1 274.333 2656.43 288C2656.76 301.667 2658.26 313.667 2660.93 324C2663.93 334.333 2668.1 342.5 2673.43 348.5C2678.76 354.5 2685.1 357.5 2692.43 357.5Z" fill="white"/>
<path d="M3075.53 367.5C3064.2 367.5 3057.03 363.333 3054.03 355C3051.03 346.667 3050.87 334.5 3053.53 318.5L3068.53 239C3071.2 223 3071.53 211.167 3069.53 203.5C3067.53 195.833 3063.2 192 3056.53 192C3048.53 192 3039.7 198.167 3030.03 210.5C3020.37 222.5 3011.03 240.667 3002.03 265C2993.03 289.333 2985.53 320 2979.53 357L2970.53 356.5C2977.2 315.833 2986.2 281.167 2997.53 252.5C3008.87 223.5 3021.87 201.5 3036.53 186.5C3051.2 171.167 3066.53 163.5 3082.53 163.5C3095.53 163.5 3104.7 168.833 3110.03 179.5C3115.7 190.167 3116.37 206.833 3112.03 229.5L3096.03 318.5C3094.37 327.833 3094.2 334.167 3095.53 337.5C3097.2 340.5 3099.53 342 3102.53 342C3106.2 342 3110.03 340.333 3114.03 337C3118.37 333.667 3123.2 329.5 3128.53 324.5C3129.87 323.167 3131.2 323.167 3132.53 324.5C3133.87 325.833 3133.87 327.167 3132.53 328.5C3122.2 340.833 3112.53 350.5 3103.53 357.5C3094.53 364.167 3085.2 367.5 3075.53 367.5ZM2840.53 367C2834.2 367 2829.87 366.5 2827.53 365.5C2825.2 364.833 2824.03 364 2824.03 363C2824.03 361.667 2824.87 357.333 2826.53 350C2828.53 342.667 2830.2 334.667 2831.53 326L2852.03 214.5C2855.03 198.167 2852.53 190 2844.53 190C2841.2 190 2837.03 191.667 2832.03 195C2827.37 198.333 2821.87 203.333 2815.53 210C2814.53 211.333 2813.37 211.333 2812.03 210C2810.7 208.333 2810.53 206.833 2811.53 205.5C2823.53 191.167 2834.37 181 2844.03 175C2853.7 168.667 2863.2 165.5 2872.53 165.5C2883.2 165.5 2890.2 169.333 2893.53 177C2896.87 184.333 2897.2 194.833 2894.53 208.5L2868.53 357C2866.87 363.667 2857.53 367 2840.53 367ZM2951.53 367C2945.2 367 2940.87 366.5 2938.53 365.5C2936.2 364.833 2935.03 364 2935.03 363C2935.03 361.667 2935.87 357.333 2937.53 350C2939.53 342.667 2941.2 334.667 2942.53 326L2959.03 238C2962.03 221.667 2962.2 210 2959.53 203C2956.87 195.667 2952.2 192 2945.53 192C2936.87 192 2927.53 198.5 2917.53 211.5C2907.87 224.5 2898.7 243.333 2890.03 268C2881.37 292.333 2874.2 322 2868.53 357L2859.53 356.5C2865.87 316.833 2874.53 282.667 2885.53 254C2896.87 225 2909.87 202.667 2924.53 187C2939.53 171.333 2955.37 163.5 2972.03 163.5C2984.7 163.5 2993.87 168.667 2999.53 179C3005.53 189.333 3006.53 205.833 3002.53 228.5L2979.53 357C2978.53 363.667 2969.2 367 2951.53 367Z" fill="white"/>
</svg>
