<svg width="4352" height="592" viewBox="0 0 4352 592" fill="none" xmlns="http://www.w3.org/2000/svg">
<path d="M54.0571 590.4C43.9238 590.4 34.0571 588.267 24.4571 584C15.3905 580.267 8.45714 573.6 3.65714 564C-0.609524 553.867 -1.14286 540 2.05714 522.4L36.4571 336C40.1905 316.267 40.4571 304 37.2571 299.2C34.5905 294.4 25.2571 292 9.25715 292C7.12381 292 6.32381 290.4 6.85714 287.2C7.39048 284 8.45714 282.4 10.0571 282.4C28.7238 282.4 44.7238 276.533 58.0571 264.8C71.3905 252.533 80.1905 237.867 84.4571 220.8C84.9905 219.2 87.3905 218.4 91.6572 218.4C96.4571 218.4 98.5905 219.2 98.0572 220.8L48.4571 497.6C44.1905 519.467 44.9905 535.467 50.8571 545.6C57.2571 555.733 68.7238 560.8 85.2571 560.8C100.724 560.8 114.59 557.333 126.857 550.4C139.124 542.933 150.857 534.4 162.057 524.8C163.124 523.733 164.724 524.267 166.857 526.4C169.524 528.533 170.057 530.133 168.457 531.2C144.457 552.533 123.39 567.733 105.257 576.8C87.1238 585.867 70.0571 590.4 54.0571 590.4ZM169.257 307.2C168.19 307.2 162.324 306.667 151.657 305.6C140.99 304 128.457 302.667 114.057 301.6C100.19 300 86.5905 299.2 73.2571 299.2L74.8571 280C88.7238 280 103.657 279.467 119.657 278.4C135.657 277.333 150.324 276.533 163.657 276C176.99 274.933 185.524 274.4 189.257 274.4C191.924 274.4 193.524 275.2 194.057 276.8C195.124 277.867 195.39 279.467 194.857 281.6C194.324 285.867 191.124 291.2 185.257 297.6C179.924 304 174.59 307.2 169.257 307.2Z" fill="white"/>
<path d="M242.795 587.2C235.328 587.2 230.261 586.667 227.595 585.6C225.461 585.067 224.395 584 224.395 582.4C224.395 580.267 225.728 573.067 228.395 560.8C231.595 548.533 234.261 535.467 236.395 521.6L317.995 85.6C321.728 66.4 319.595 54.4 311.595 49.6C303.595 44.8 287.595 48.2667 263.595 60C261.461 61.0666 259.595 60 257.995 56.8C256.928 53.6 257.461 51.7333 259.595 51.2L362.795 0.79999C364.928 -0.266695 367.061 0.266631 369.195 2.39997C371.328 4.53331 372.128 6.13332 371.595 7.2L268.395 575.2C267.328 583.2 258.795 587.2 242.795 587.2ZM446.795 588C432.928 588 424.128 582.133 420.395 570.4C417.195 558.667 418.261 538.4 423.595 509.6L446.795 382.4C452.661 352 453.195 329.6 448.395 315.2C443.595 300.267 433.195 292.8 417.195 292.8C400.128 292.8 382.261 303.733 363.595 325.6C344.928 347.467 327.061 379.467 309.995 421.6C293.461 463.733 279.595 514.933 268.395 575.2L258.795 574.4C269.995 512 284.928 457.333 303.595 410.4C322.261 363.467 343.595 326.933 367.595 300.8C392.128 274.667 417.461 261.6 443.595 261.6C466.528 261.6 481.461 269.867 488.395 286.4C495.861 302.933 496.395 329.867 489.995 367.2L463.595 509.6C460.928 525.6 460.661 537.333 462.795 544.8C465.461 552.267 470.261 556 477.195 556C483.061 556 490.528 552.8 499.595 546.4C508.661 539.467 518.795 530.4 529.995 519.2C532.128 517.067 534.261 517.067 536.395 519.2C538.528 521.333 538.528 523.467 536.395 525.6C519.328 545.333 503.595 560.8 489.195 572C474.795 582.667 460.661 588 446.795 588Z" fill="white"/>
<path d="M678.132 590.4C649.865 590.4 627.465 582.933 610.932 568C594.932 553.067 584.265 533.6 578.932 509.6C574.132 485.6 574.399 460 579.732 432.8C582.932 413.067 589.865 393.067 600.532 372.8C611.732 352 625.599 333.333 642.132 316.8C658.665 300.267 677.065 286.933 697.332 276.8C717.599 266.667 739.199 261.6 762.132 261.6C781.865 261.6 796.265 265.6 805.332 273.6C814.932 281.067 818.666 291.467 816.532 304.8C813.866 317.6 806.399 329.867 794.132 341.6C781.865 353.333 766.132 364 746.932 373.6C727.732 382.667 706.132 390.667 682.132 397.6C658.665 404.533 634.132 409.333 608.532 412L610.132 401.6C651.199 395.733 685.599 386.4 713.332 373.6C741.599 360.267 758.132 342.933 762.932 321.6C766.665 307.2 764.265 297.333 755.732 292C747.199 286.133 737.599 283.2 726.932 283.2C708.799 283.2 693.065 288.8 679.732 300C666.399 311.2 655.465 326.133 646.932 344.8C638.399 363.467 632.265 384 628.532 406.4C622.665 436.267 621.865 462.933 626.132 486.4C630.932 509.867 640.265 528.533 654.132 542.4C667.999 556.267 686.132 563.2 708.532 563.2C721.332 563.2 734.665 561.333 748.532 557.6C762.399 553.867 775.999 546.933 789.332 536.8C790.932 535.733 792.532 536.267 794.132 538.4C796.265 540.533 796.532 542.4 794.932 544C774.666 560.533 754.932 572.533 735.732 580C716.532 586.933 697.332 590.4 678.132 590.4Z" fill="white"/>
<path d="M1301.06 72C1323.46 72 1347.46 73.8667 1373.06 77.6C1399.19 81.3333 1419.72 86.6667 1434.66 93.6C1439.46 95.2 1442.66 97.3333 1444.26 100C1445.86 102.133 1446.92 106.133 1447.46 112L1457.06 223.2C1457.06 224.8 1455.72 225.867 1453.06 226.4C1450.92 226.933 1449.32 226.133 1448.26 224C1430.66 182.933 1406.66 150.667 1376.26 127.2C1346.39 103.733 1310.92 92 1269.86 92C1234.12 92 1203.72 101.067 1178.66 119.2C1154.12 137.333 1135.46 162.667 1122.66 195.2C1110.39 227.2 1104.26 264.533 1104.26 307.2C1104.26 344 1108.79 378.667 1117.86 411.2C1126.92 443.2 1139.72 471.467 1156.26 496C1172.79 520 1192.52 538.933 1215.46 552.8C1238.39 566.667 1263.72 573.6 1291.46 573.6C1325.59 573.6 1355.99 562.4 1382.66 540C1409.86 517.6 1434.12 482.933 1455.46 436C1456.52 433.867 1458.39 433.067 1461.06 433.6C1463.72 434.133 1465.06 435.2 1465.06 436.8L1453.06 545.6C1451.99 552 1450.66 556.267 1449.06 558.4C1447.99 560 1445.06 561.867 1440.26 564C1415.72 573.067 1390.92 579.733 1365.86 584C1341.32 588.267 1317.32 590.4 1293.86 590.4C1242.12 590.4 1197.86 582.667 1161.06 567.2C1124.26 551.2 1094.12 530.4 1070.66 504.8C1047.72 478.667 1030.66 450.4 1019.46 420C1008.79 389.067 1003.46 358.667 1003.46 328.8C1003.46 289.333 1011.46 253.867 1027.46 222.4C1043.99 190.933 1066.12 164 1093.86 141.6C1122.12 119.2 1153.86 102.133 1189.06 90.4C1224.79 78.1333 1262.12 72 1301.06 72Z" fill="white"/>
<path d="M1689.01 591.2C1655.41 591.2 1626.35 583.467 1601.81 568C1577.28 552.533 1558.35 532 1545.01 506.4C1531.68 480.267 1525.01 452.267 1525.01 422.4C1525.01 394.667 1530.35 370.667 1541.01 350.4C1551.68 330.133 1565.81 313.6 1583.41 300.8C1601.01 287.467 1620.21 277.6 1641.01 271.2C1661.81 264.8 1682.35 261.6 1702.61 261.6C1736.75 261.6 1765.81 269.6 1789.81 285.6C1814.35 301.6 1833.01 322.133 1845.81 347.2C1858.61 372.267 1865.01 398.933 1865.01 427.2C1865.01 459.733 1856.75 488.533 1840.21 513.6C1824.21 538.133 1802.88 557.333 1776.21 571.2C1749.55 584.533 1720.48 591.2 1689.01 591.2ZM1713.01 574.4C1734.35 574.4 1750.35 564 1761.01 543.2C1771.68 522.4 1777.01 493.067 1777.01 455.2C1777.01 416.267 1771.95 383.733 1761.81 357.6C1752.21 331.467 1739.68 311.733 1724.21 298.4C1708.75 285.067 1692.48 278.4 1675.41 278.4C1654.61 278.4 1638.61 287.733 1627.41 306.4C1616.75 325.067 1611.41 353.867 1611.41 392.8C1611.41 429.067 1615.95 461.067 1625.01 488.8C1634.08 516 1646.35 537.067 1661.81 552C1677.28 566.933 1694.35 574.4 1713.01 574.4Z" fill="white"/>
<path d="M2137.22 580.8C2135.62 580.8 2134.82 579.2 2134.82 576C2134.82 572.8 2135.62 571.2 2137.22 571.2C2153.75 571.2 2164.95 567.467 2170.82 560C2176.69 552 2179.62 537.333 2179.62 516V400.8C2179.62 372 2174.29 350.667 2163.62 336.8C2153.49 322.933 2137.22 316 2114.82 316C2098.82 316 2082.29 320 2065.22 328C2048.69 336 2035.35 346.933 2025.22 360.8L2021.22 351.2C2039.89 324.533 2060.95 303.2 2084.42 287.2C2107.89 270.667 2133.49 262.4 2161.22 262.4C2191.09 262.4 2214.02 271.733 2230.02 290.4C2246.55 309.067 2254.82 333.067 2254.82 362.4V516C2254.82 537.333 2257.75 552 2263.62 560C2270.02 567.467 2281.49 571.2 2298.02 571.2C2299.62 571.2 2300.42 572.8 2300.42 576C2300.42 579.2 2299.62 580.8 2298.02 580.8C2287.35 580.8 2275.09 580.533 2261.22 580C2247.35 579.467 2232.69 579.2 2217.22 579.2C2202.29 579.2 2187.89 579.467 2174.02 580C2160.15 580.533 2147.89 580.8 2137.22 580.8ZM1922.02 580.8C1920.42 580.8 1919.62 579.2 1919.62 576C1919.62 572.8 1920.42 571.2 1922.02 571.2C1938.55 571.2 1949.75 567.467 1955.62 560C1961.49 552 1964.42 537.333 1964.42 516V365.6C1964.42 349.067 1962.55 337.067 1958.82 329.6C1955.09 321.6 1948.69 317.6 1939.62 317.6C1934.82 317.6 1929.22 318.667 1922.82 320.8C1916.42 322.4 1909.22 325.067 1901.22 328.8C1899.09 329.867 1897.49 328.8 1896.42 325.6C1895.35 322.4 1895.35 320.533 1896.42 320L2007.62 265.6C2010.82 264.533 2012.69 264 2013.22 264C2019.09 264 2024.95 270.4 2030.82 283.2C2036.69 296 2039.62 314.4 2039.62 338.4V516C2039.62 537.333 2042.55 552 2048.42 560C2054.82 567.467 2066.29 571.2 2082.82 571.2C2084.42 571.2 2085.22 572.8 2085.22 576C2085.22 579.2 2084.42 580.8 2082.82 580.8C2072.15 580.8 2059.89 580.533 2046.02 580C2032.15 579.467 2017.49 579.2 2002.02 579.2C1987.09 579.2 1972.69 579.467 1958.82 580C1944.95 580.533 1932.69 580.8 1922.02 580.8Z" fill="white"/>
<path d="M2333.51 580.8C2331.38 580.8 2330.31 579.2 2330.31 576C2330.31 572.8 2331.38 571.2 2333.51 571.2C2353.78 571.2 2366.85 567.733 2372.71 560.8C2378.58 553.867 2381.51 538.933 2381.51 516V336C2381.51 324.267 2379.91 315.733 2376.71 310.4C2373.51 304.533 2368.18 300.8 2360.71 299.2C2353.25 297.067 2343.11 296 2330.31 296C2328.71 296 2327.91 293.6 2327.91 288.8C2327.91 284 2328.71 281.6 2330.31 281.6C2348.98 281.6 2361.78 279.2 2368.71 274.4C2375.65 269.067 2379.38 259.733 2379.91 246.4C2382.58 187.2 2391.91 139.733 2407.91 104C2423.91 67.7333 2446.58 41.3333 2475.91 24.8C2505.25 8.26665 2540.71 0 2582.31 0C2619.11 0 2647.65 5.59999 2667.91 16.8C2688.71 28 2699.11 42.9333 2699.11 61.6C2699.11 71.2 2695.91 79.4666 2689.51 86.4C2683.11 92.8 2673.25 96 2659.91 96C2646.05 96 2635.65 92 2628.71 84C2621.78 76 2615.65 66.6666 2610.31 56C2604.98 45.3333 2598.31 36 2590.31 28C2582.85 20 2571.65 16 2556.71 16C2539.65 16 2523.38 23.2 2507.91 37.6C2492.45 52 2479.91 74.9333 2470.31 106.4C2461.25 137.867 2456.71 178.933 2456.71 229.6V516C2456.71 531.467 2458.31 543.2 2461.51 551.2C2464.71 559.2 2471.38 564.533 2481.51 567.2C2491.65 569.867 2507.11 571.2 2527.91 571.2C2530.05 571.2 2531.11 572.8 2531.11 576C2531.11 579.2 2530.05 580.8 2527.91 580.8C2509.25 580.8 2490.85 580.533 2472.71 580C2455.11 579.467 2436.98 579.2 2418.31 579.2C2402.85 579.2 2387.65 579.467 2372.71 580C2358.31 580.533 2345.25 580.8 2333.51 580.8ZM2542.31 312.8C2521.51 308 2501.51 304.8 2482.31 303.2C2463.65 301.067 2443.65 300 2422.31 300V279.2C2442.58 279.2 2462.58 278.4 2482.31 276.8C2502.05 275.2 2522.85 273.333 2544.71 271.2C2546.31 271.2 2547.65 273.333 2548.71 277.6C2549.78 281.333 2550.31 285.6 2550.31 290.4C2550.31 295.733 2549.25 301.067 2547.11 306.4C2545.51 311.2 2543.91 313.333 2542.31 312.8ZM2587.91 580.8C2586.85 580.8 2586.31 579.2 2586.31 576C2586.31 572.8 2586.85 571.2 2587.91 571.2C2604.45 571.2 2615.65 567.467 2621.51 560C2627.91 552 2631.11 537.333 2631.11 516V372.8C2631.11 347.2 2627.38 331.467 2619.91 325.6C2612.45 319.2 2598.31 320.8 2577.51 330.4C2575.38 330.933 2573.51 329.6 2571.91 326.4C2570.85 323.2 2570.85 321.333 2571.91 320.8L2692.71 264.8C2695.38 263.2 2698.58 264 2702.31 267.2C2706.05 269.867 2707.91 272.533 2707.91 275.2C2707.91 281.6 2707.38 292.267 2706.31 307.2C2705.78 322.133 2705.51 343.467 2705.51 371.2V516C2705.51 537.333 2708.45 552 2714.31 560C2720.71 567.467 2732.18 571.2 2748.71 571.2C2750.85 571.2 2751.91 572.8 2751.91 576C2751.91 579.2 2750.85 580.8 2748.71 580.8C2738.05 580.8 2725.78 580.533 2711.91 580C2698.58 579.467 2684.18 579.2 2668.71 579.2C2653.25 579.2 2638.58 579.467 2624.71 580C2610.85 580.533 2598.58 580.8 2587.91 580.8Z" fill="white"/>
<path d="M2919.36 591.2C2896.43 591.2 2875.36 585.067 2856.16 572.8C2837.5 560.533 2822.3 542.933 2810.56 520C2799.36 496.533 2793.76 468.267 2793.76 435.2C2793.76 402.667 2799.63 375.467 2811.36 353.6C2823.1 331.2 2838.03 313.333 2856.16 300C2874.83 286.667 2894.83 277.067 2916.16 271.2C2937.5 264.8 2957.76 261.6 2976.96 261.6C2996.16 261.6 3014.03 264 3030.56 268.8C3047.1 273.6 3062.03 279.467 3075.36 286.4L3056.96 351.2C3045.76 327.2 3032.96 309.867 3018.56 299.2C3004.16 288 2986.3 282.4 2964.96 282.4C2937.76 282.4 2916.16 292 2900.16 311.2C2884.16 329.867 2876.16 362.667 2876.16 409.6C2876.16 440 2879.9 465.867 2887.36 487.2C2894.83 508.533 2905.23 524.8 2918.56 536C2931.9 547.2 2946.83 552.8 2963.36 552.8C2984.7 552.8 3003.36 546.933 3019.36 535.2C3035.36 523.467 3050.83 509.333 3065.76 492.8L3073.76 500C3062.56 512.8 3049.23 526.4 3033.76 540.8C3018.83 554.667 3001.76 566.667 2982.56 576.8C2963.9 586.4 2942.83 591.2 2919.36 591.2ZM3114.56 11.2V488C3114.56 506.133 3116.16 518.933 3119.36 526.4C3123.1 533.867 3128.96 537.6 3136.96 537.6C3140.7 537.6 3145.23 536.8 3150.56 535.2C3156.43 533.6 3162.83 531.467 3169.76 528.8C3171.36 527.733 3172.96 528.8 3174.56 532C3176.16 534.667 3176.43 536.533 3175.36 537.6L3064.96 591.2C3063.36 591.733 3062.03 592 3060.96 592C3055.63 592 3050.56 585.333 3045.76 572C3041.5 558.667 3039.36 539.733 3039.36 515.2V109.6C3039.36 91.4667 3037.76 78.4 3034.56 70.4C3031.36 61.8667 3025.23 57.6 3016.16 57.6C3012.43 57.6 3007.9 58.4 3002.56 60C2997.76 61.6 2992.43 63.7333 2986.56 66.4C2984.43 66.9333 2982.56 65.6 2980.96 62.4C2979.36 59.2 2979.1 57.3333 2980.16 56.8L3097.76 1.59998C3098.83 1.06665 3099.9 0.79999 3100.96 0.79999C3103.63 0.79999 3106.56 2.13332 3109.76 4.79999C3112.96 6.93332 3114.56 9.06666 3114.56 11.2Z" fill="white"/>
<path d="M3363.98 590.4C3329.31 590.4 3299.71 583.2 3275.18 568.8C3251.18 554.4 3232.78 535.467 3219.98 512C3207.71 488 3201.58 462.667 3201.58 436C3201.58 404.533 3209.58 376 3225.58 350.4C3241.58 324.267 3263.18 303.467 3290.38 288C3318.11 272.533 3349.31 264.8 3383.98 264.8C3417.04 264.8 3442.38 272 3459.98 286.4C3477.58 300.267 3486.38 319.467 3486.38 344C3486.38 349.867 3485.84 355.2 3484.78 360C3483.71 364.8 3481.31 367.2 3477.58 367.2H3400.78C3401.84 342.133 3398.91 321.6 3391.98 305.6C3385.04 289.067 3372.51 280.8 3354.38 280.8C3333.04 280.8 3315.71 292 3302.38 314.4C3289.04 336.267 3282.38 365.6 3282.38 402.4C3282.38 432.267 3287.18 458.4 3296.78 480.8C3306.38 503.2 3320.24 520.533 3338.38 532.8C3356.51 545.067 3378.38 551.2 3403.98 551.2C3416.78 551.2 3430.38 549.333 3444.78 545.6C3459.71 541.867 3473.04 536.267 3484.78 528.8C3485.84 527.733 3487.18 528.267 3488.78 530.4C3490.91 532.533 3491.44 534.4 3490.38 536C3470.64 555.733 3450.38 569.867 3429.58 578.4C3409.31 586.4 3387.44 590.4 3363.98 590.4ZM3254.38 368.8L3253.58 353.6L3428.78 349.6V367.2L3254.38 368.8Z" fill="white"/>
<path d="M3756.75 580.8C3755.15 580.8 3754.35 579.2 3754.35 576C3754.35 572.8 3755.15 571.2 3756.75 571.2C3773.28 571.2 3784.48 567.467 3790.35 560C3796.22 552 3799.15 537.333 3799.15 516V400.8C3799.15 372 3793.82 350.667 3783.15 336.8C3773.02 322.933 3756.75 316 3734.35 316C3718.35 316 3701.82 320 3684.75 328C3668.22 336 3654.88 346.933 3644.75 360.8L3640.75 351.2C3659.42 324.533 3680.48 303.2 3703.95 287.2C3727.42 270.667 3753.02 262.4 3780.75 262.4C3810.62 262.4 3833.55 271.733 3849.55 290.4C3866.08 309.067 3874.35 333.067 3874.35 362.4V516C3874.35 537.333 3877.28 552 3883.15 560C3889.55 567.467 3901.02 571.2 3917.55 571.2C3919.15 571.2 3919.95 572.8 3919.95 576C3919.95 579.2 3919.15 580.8 3917.55 580.8C3906.88 580.8 3894.62 580.533 3880.75 580C3866.88 579.467 3852.22 579.2 3836.75 579.2C3821.82 579.2 3807.42 579.467 3793.55 580C3779.68 580.533 3767.42 580.8 3756.75 580.8ZM3541.55 580.8C3539.95 580.8 3539.15 579.2 3539.15 576C3539.15 572.8 3539.95 571.2 3541.55 571.2C3558.08 571.2 3569.28 567.467 3575.15 560C3581.02 552 3583.95 537.333 3583.95 516V365.6C3583.95 349.067 3582.08 337.067 3578.35 329.6C3574.62 321.6 3568.22 317.6 3559.15 317.6C3554.35 317.6 3548.75 318.667 3542.35 320.8C3535.95 322.4 3528.75 325.067 3520.75 328.8C3518.62 329.867 3517.02 328.8 3515.95 325.6C3514.88 322.4 3514.88 320.533 3515.95 320L3627.15 265.6C3630.35 264.533 3632.22 264 3632.75 264C3638.62 264 3644.48 270.4 3650.35 283.2C3656.22 296 3659.15 314.4 3659.15 338.4V516C3659.15 537.333 3662.08 552 3667.95 560C3674.35 567.467 3685.82 571.2 3702.35 571.2C3703.95 571.2 3704.75 572.8 3704.75 576C3704.75 579.2 3703.95 580.8 3702.35 580.8C3691.68 580.8 3679.42 580.533 3665.55 580C3651.68 579.467 3637.02 579.2 3621.55 579.2C3606.62 579.2 3592.22 579.467 3578.35 580C3564.48 580.533 3552.22 580.8 3541.55 580.8Z" fill="white"/>
<path d="M4078.64 590.4C4065.84 590.4 4052.78 588.267 4039.44 584C4026.64 579.733 4015.71 572.267 4006.64 561.6C3998.11 550.933 3993.84 536 3993.84 516.8V339.2C3993.84 328 3992.51 319.2 3989.84 312.8C3987.18 306.4 3982.91 301.867 3977.04 299.2C3971.18 296.533 3963.18 295.2 3953.04 295.2C3950.91 295.2 3949.84 292.8 3949.84 288C3949.84 283.2 3950.91 280.8 3953.04 280.8C3980.24 279.733 4002.38 273.867 4019.44 263.2C4036.51 252 4049.31 235.733 4057.84 214.4C4058.91 212.267 4061.04 211.2 4064.24 211.2C4067.98 211.2 4069.84 212.267 4069.84 214.4V490.4C4069.84 511.733 4075.18 526.933 4085.84 536C4097.04 545.067 4110.64 549.6 4126.64 549.6C4138.91 549.6 4150.38 547.2 4161.04 542.4C4172.24 537.067 4181.58 531.467 4189.04 525.6C4190.64 524 4192.51 524.533 4194.64 527.2C4197.31 529.333 4197.58 531.2 4195.44 532.8C4175.71 552.533 4156.51 567.2 4137.84 576.8C4119.71 585.867 4099.98 590.4 4078.64 590.4ZM4170.64 312.8C4148.78 308 4127.44 304.8 4106.64 303.2C4086.38 301.067 4064.78 300 4041.84 300V279.2C4063.71 279.2 4085.04 278.4 4105.84 276.8C4127.18 275.2 4149.84 273.333 4173.84 271.2C4174.91 271.2 4175.98 273.333 4177.04 277.6C4178.64 281.333 4179.44 285.6 4179.44 290.4C4179.44 295.733 4178.38 301.067 4176.24 306.4C4174.64 311.2 4172.78 313.333 4170.64 312.8Z" fill="white"/>
<path d="M4304.26 590.6C4289.32 590.6 4277.32 586.333 4268.26 577.8C4259.72 568.733 4255.46 556.733 4255.46 541.8C4255.46 527.933 4259.72 516.733 4268.26 508.2C4277.32 499.667 4289.32 495.4 4304.26 495.4C4319.72 495.4 4331.46 499.667 4339.46 508.2C4347.46 516.733 4351.46 527.933 4351.46 541.8C4351.46 556.733 4347.46 568.733 4339.46 577.8C4331.46 586.333 4319.72 590.6 4304.26 590.6Z" fill="#EB0032"/>
</svg>
